<?xml version="1.0" encoding="UTF-8" standalone="no"?>
<!DOCTYPE svg PUBLIC "-//W3C//DTD SVG 1.1//EN"
 "http://www.w3.org/Graphics/SVG/1.1/DTD/svg11.dtd">
<!-- Generated by graphviz version 13.1.2 (20250808.2320)
 -->
<!-- Title: WWDG_Task Pages: 1 -->
<svg width="659pt" height="1119pt"
 viewBox="0.00 0.00 659.00 1119.00" xmlns="http://www.w3.org/2000/svg" xmlns:xlink="http://www.w3.org/1999/xlink">
<g id="graph0" class="graph" transform="scale(1 1) rotate(0) translate(4 1114.5)">
<title>WWDG_Task</title>
<polygon fill="white" stroke="none" points="-4,4 -4,-1114.5 655.25,-1114.5 655.25,4 -4,4"/>
<!-- Start -->
<g id="node1" class="node">
<title>Start</title>
<path fill="none" stroke="black" d="M631,-1110.5C631,-1110.5 461.25,-1110.5 461.25,-1110.5 455.25,-1110.5 449.25,-1104.5 449.25,-1098.5 449.25,-1098.5 449.25,-1086.5 449.25,-1086.5 449.25,-1080.5 455.25,-1074.5 461.25,-1074.5 461.25,-1074.5 631,-1074.5 631,-1074.5 637,-1074.5 643,-1080.5 643,-1086.5 643,-1086.5 643,-1098.5 643,-1098.5 643,-1104.5 637,-1110.5 631,-1110.5"/>
<text xml:space="preserve" text-anchor="middle" x="546.12" y="-1089" font-family="Helvetica,sans-Serif" font-size="10.00">Start: DAQ_WWDG_Task (every 60 ms)</text>
</g>
<!-- CheckEntry -->
<g id="node2" class="node">
<title>CheckEntry</title>
<path fill="none" stroke="black" d="M639.25,-1023.5C639.25,-1023.5 453,-1023.5 453,-1023.5 447,-1023.5 441,-1017.5 441,-1011.5 441,-1011.5 441,-999.5 441,-999.5 441,-993.5 447,-987.5 453,-987.5 453,-987.5 639.25,-987.5 639.25,-987.5 645.25,-987.5 651.25,-993.5 651.25,-999.5 651.25,-999.5 651.25,-1011.5 651.25,-1011.5 651.25,-1017.5 645.25,-1023.5 639.25,-1023.5"/>
<text xml:space="preserve" text-anchor="middle" x="546.12" y="-1002" font-family="Helvetica,sans-Serif" font-size="10.00">Check: Has each task been entered/kicked?</text>
</g>
<!-- Start&#45;&gt;CheckEntry -->
<g id="edge1" class="edge">
<title>Start&#45;&gt;CheckEntry</title>
<path fill="none" stroke="black" d="M546.12,-1074.3C546.12,-1063.08 546.12,-1048.17 546.12,-1035.19"/>
<polygon fill="black" stroke="black" points="549.63,-1035.48 546.13,-1025.48 542.63,-1035.48 549.63,-1035.48"/>
</g>
<!-- RuntimeLoop -->
<g id="node3" class="node">
<title>RuntimeLoop</title>
<path fill="none" stroke="black" d="M533.62,-927C533.62,-927 406.62,-927 406.62,-927 400.62,-927 394.62,-921 394.62,-915 394.62,-915 394.62,-903 394.62,-903 394.62,-897 400.62,-891 406.62,-891 406.62,-891 533.62,-891 533.62,-891 539.62,-891 545.62,-897 545.62,-903 545.62,-903 545.62,-915 545.62,-915 545.62,-921 539.62,-927 533.62,-927"/>
<text xml:space="preserve" text-anchor="middle" x="470.12" y="-905.5" font-family="Helvetica,sans-Serif" font-size="10.00">Loop: Check runtimes &gt; 25 ms</text>
</g>
<!-- CheckEntry&#45;&gt;RuntimeLoop -->
<g id="edge2" class="edge">
<title>CheckEntry&#45;&gt;RuntimeLoop</title>
<path fill="none" stroke="black" d="M532.19,-987.17C520.62,-972.78 503.99,-952.11 490.86,-935.78"/>
<polygon fill="black" stroke="black" points="493.92,-934 484.92,-928.4 488.46,-938.39 493.92,-934"/>
<text xml:space="preserve" text-anchor="middle" x="516.4" y="-953.95" font-family="Helvetica,sans-Serif" font-size="9.00">No</text>
</g>
<!-- End -->
<g id="node15" class="node">
<title>End</title>
<path fill="none" stroke="black" d="M548.75,-36C548.75,-36 509.5,-36 509.5,-36 503.5,-36 497.5,-30 497.5,-24 497.5,-24 497.5,-12 497.5,-12 497.5,-6 503.5,0 509.5,0 509.5,0 548.75,0 548.75,0 554.75,0 560.75,-6 560.75,-12 560.75,-12 560.75,-24 560.75,-24 560.75,-30 554.75,-36 548.75,-36"/>
<text xml:space="preserve" text-anchor="middle" x="529.12" y="-14.5" font-family="Helvetica,sans-Serif" font-size="10.00">Next cycle</text>
</g>
<!-- CheckEntry&#45;&gt;End -->
<g id="edge3" class="edge">
<title>CheckEntry&#45;&gt;End</title>
<path fill="none" stroke="black" d="M567.77,-987.06C586.68,-969.72 611.12,-941.26 611.12,-910 611.12,-910 611.12,-910 611.12,-104 611.12,-77.86 590.79,-56.68 570.38,-42"/>
<polygon fill="black" stroke="black" points="572.57,-39.25 562.32,-36.56 568.65,-45.05 572.57,-39.25"/>
<text xml:space="preserve" text-anchor="middle" x="618.62" y="-494.2" font-family="Helvetica,sans-Serif" font-size="9.00">Yes</text>
</g>
<!-- RuntimeCheck -->
<g id="node4" class="node">
<title>RuntimeCheck</title>
<path fill="none" stroke="black" d="M450,-830.5C450,-830.5 370.25,-830.5 370.25,-830.5 364.25,-830.5 358.25,-824.5 358.25,-818.5 358.25,-818.5 358.25,-806.5 358.25,-806.5 358.25,-800.5 364.25,-794.5 370.25,-794.5 370.25,-794.5 450,-794.5 450,-794.5 456,-794.5 462,-800.5 462,-806.5 462,-806.5 462,-818.5 462,-818.5 462,-824.5 456,-830.5 450,-830.5"/>
<text xml:space="preserve" text-anchor="middle" x="410.12" y="-809" font-family="Helvetica,sans-Serif" font-size="10.00">Is runtime &gt; 25 ms?</text>
</g>
<!-- RuntimeLoop&#45;&gt;RuntimeCheck -->
<g id="edge4" class="edge">
<title>RuntimeLoop&#45;&gt;RuntimeCheck</title>
<path fill="none" stroke="black" d="M452.61,-890.59C445.96,-883.38 438.66,-874.69 433.12,-866 428.27,-858.39 423.97,-849.57 420.44,-841.37"/>
<polygon fill="black" stroke="black" points="423.69,-840.08 416.69,-832.13 417.2,-842.71 423.69,-840.08"/>
</g>
<!-- RuntimeCheck&#45;&gt;RuntimeLoop -->
<g id="edge6" class="edge">
<title>RuntimeCheck&#45;&gt;RuntimeLoop</title>
<path fill="none" stroke="black" d="M421.06,-830.72C430.01,-844.81 442.81,-864.98 453.1,-881.18"/>
<polygon fill="black" stroke="black" points="449.99,-882.82 458.31,-889.39 455.9,-879.07 449.99,-882.82"/>
<text xml:space="preserve" text-anchor="middle" x="467.8" y="-857.45" font-family="Helvetica,sans-Serif" font-size="9.00">No, continue</text>
</g>
<!-- RuntimeBreak -->
<g id="node5" class="node">
<title>RuntimeBreak</title>
<path fill="none" stroke="black" d="M332.62,-673C332.62,-673 217.62,-673 217.62,-673 211.62,-673 205.62,-667 205.62,-661 205.62,-661 205.62,-649 205.62,-649 205.62,-643 211.62,-637 217.62,-637 217.62,-637 332.62,-637 332.62,-637 338.62,-637 344.62,-643 344.62,-649 344.62,-649 344.62,-661 344.62,-661 344.62,-667 338.62,-673 332.62,-673"/>
<text xml:space="preserve" text-anchor="middle" x="275.12" y="-651.5" font-family="Helvetica,sans-Serif" font-size="10.00">Break loop, mark task faulty</text>
</g>
<!-- RuntimeCheck&#45;&gt;RuntimeBreak -->
<g id="edge5" class="edge">
<title>RuntimeCheck&#45;&gt;RuntimeBreak</title>
<path fill="none" stroke="black" d="M384.12,-794.03C364.06,-779.63 336.54,-757.76 317.12,-734 304.63,-718.71 294.11,-699.14 286.72,-683.43"/>
<polygon fill="black" stroke="black" points="290.06,-682.31 282.74,-674.65 283.68,-685.2 290.06,-682.31"/>
<text xml:space="preserve" text-anchor="middle" x="359.72" y="-760.95" font-family="Helvetica,sans-Serif" font-size="9.00">Yes</text>
</g>
<!-- TickLoop -->
<g id="node6" class="node">
<title>TickLoop</title>
<path fill="none" stroke="black" d="M473.25,-734C473.25,-734 347,-734 347,-734 341,-734 335,-728 335,-722 335,-722 335,-710 335,-710 335,-704 341,-698 347,-698 347,-698 473.25,-698 473.25,-698 479.25,-698 485.25,-704 485.25,-710 485.25,-710 485.25,-722 485.25,-722 485.25,-728 479.25,-734 473.25,-734"/>
<text xml:space="preserve" text-anchor="middle" x="410.12" y="-712.5" font-family="Helvetica,sans-Serif" font-size="10.00">Loop: Check tick diffs &gt; 50 ms</text>
</g>
<!-- RuntimeCheck&#45;&gt;TickLoop -->
<g id="edge13" class="edge">
<title>RuntimeCheck&#45;&gt;TickLoop</title>
<path fill="none" stroke="black" d="M410.12,-794.17C410.12,-780.58 410.12,-761.39 410.12,-745.54"/>
<polygon fill="black" stroke="black" points="413.63,-745.74 410.13,-735.74 406.63,-745.74 413.63,-745.74"/>
<text xml:space="preserve" text-anchor="middle" x="440.88" y="-760.95" font-family="Helvetica,sans-Serif" font-size="9.00">No faulty found</text>
</g>
<!-- IncrementError -->
<g id="node10" class="node">
<title>IncrementError</title>
<path fill="none" stroke="black" d="M357.5,-393.5C357.5,-393.5 250.75,-393.5 250.75,-393.5 244.75,-393.5 238.75,-387.5 238.75,-381.5 238.75,-381.5 238.75,-369.5 238.75,-369.5 238.75,-363.5 244.75,-357.5 250.75,-357.5 250.75,-357.5 357.5,-357.5 357.5,-357.5 363.5,-357.5 369.5,-363.5 369.5,-369.5 369.5,-369.5 369.5,-381.5 369.5,-381.5 369.5,-387.5 363.5,-393.5 357.5,-393.5"/>
<text xml:space="preserve" text-anchor="middle" x="304.12" y="-372" font-family="Helvetica,sans-Serif" font-size="10.00">Increment task error count</text>
</g>
<!-- RuntimeBreak&#45;&gt;IncrementError -->
<g id="edge7" class="edge">
<title>RuntimeBreak&#45;&gt;IncrementError</title>
<path fill="none" stroke="black" d="M276.94,-636.64C281.8,-590.12 295.16,-462.28 301.15,-404.96"/>
<polygon fill="black" stroke="black" points="304.6,-405.67 302.15,-395.36 297.63,-404.94 304.6,-405.67"/>
</g>
<!-- TickCheck -->
<g id="node7" class="node">
<title>TickCheck</title>
<path fill="none" stroke="black" d="M459.62,-612C459.62,-612 380.62,-612 380.62,-612 374.62,-612 368.62,-606 368.62,-600 368.62,-600 368.62,-588 368.62,-588 368.62,-582 374.62,-576 380.62,-576 380.62,-576 459.62,-576 459.62,-576 465.62,-576 471.62,-582 471.62,-588 471.62,-588 471.62,-600 471.62,-600 471.62,-606 465.62,-612 459.62,-612"/>
<text xml:space="preserve" text-anchor="middle" x="420.12" y="-590.5" font-family="Helvetica,sans-Serif" font-size="10.00">Is tick diff &gt; 50 ms?</text>
</g>
<!-- TickLoop&#45;&gt;TickCheck -->
<g id="edge14" class="edge">
<title>TickLoop&#45;&gt;TickCheck</title>
<path fill="none" stroke="black" d="M410.16,-697.61C410.35,-681.77 411,-657.76 413.12,-637 413.59,-632.5 414.23,-627.74 414.93,-623.12"/>
<polygon fill="black" stroke="black" points="418.33,-624.03 416.52,-613.59 411.43,-622.88 418.33,-624.03"/>
</g>
<!-- TickCheck&#45;&gt;TickLoop -->
<g id="edge16" class="edge">
<title>TickCheck&#45;&gt;TickLoop</title>
<path fill="none" stroke="black" d="M418.67,-612.47C417.06,-631.76 414.45,-663.13 412.53,-686.1"/>
<polygon fill="black" stroke="black" points="409.05,-685.79 411.7,-696.04 416.02,-686.37 409.05,-685.79"/>
<text xml:space="preserve" text-anchor="middle" x="442.48" y="-651.7" font-family="Helvetica,sans-Serif" font-size="9.00">No, continue</text>
</g>
<!-- TickBreak -->
<g id="node8" class="node">
<title>TickBreak</title>
<path fill="none" stroke="black" d="M452.62,-515.5C452.62,-515.5 337.62,-515.5 337.62,-515.5 331.62,-515.5 325.62,-509.5 325.62,-503.5 325.62,-503.5 325.62,-491.5 325.62,-491.5 325.62,-485.5 331.62,-479.5 337.62,-479.5 337.62,-479.5 452.62,-479.5 452.62,-479.5 458.62,-479.5 464.62,-485.5 464.62,-491.5 464.62,-491.5 464.62,-503.5 464.62,-503.5 464.62,-509.5 458.62,-515.5 452.62,-515.5"/>
<text xml:space="preserve" text-anchor="middle" x="395.12" y="-494" font-family="Helvetica,sans-Serif" font-size="10.00">Break loop, mark task faulty</text>
</g>
<!-- TickCheck&#45;&gt;TickBreak -->
<g id="edge15" class="edge">
<title>TickCheck&#45;&gt;TickBreak</title>
<path fill="none" stroke="black" d="M415.54,-575.67C411.91,-561.95 406.77,-542.51 402.55,-526.57"/>
<polygon fill="black" stroke="black" points="406.01,-525.96 400.07,-517.19 399.24,-527.75 406.01,-525.96"/>
<text xml:space="preserve" text-anchor="middle" x="415.87" y="-542.45" font-family="Helvetica,sans-Serif" font-size="9.00">Yes</text>
</g>
<!-- NoFault -->
<g id="node9" class="node">
<title>NoFault</title>
<path fill="none" stroke="black" d="M564.38,-454.5C564.38,-454.5 483.88,-454.5 483.88,-454.5 477.88,-454.5 471.88,-448.5 471.88,-442.5 471.88,-442.5 471.88,-430.5 471.88,-430.5 471.88,-424.5 477.88,-418.5 483.88,-418.5 483.88,-418.5 564.38,-418.5 564.38,-418.5 570.38,-418.5 576.38,-424.5 576.38,-430.5 576.38,-430.5 576.38,-442.5 576.38,-442.5 576.38,-448.5 570.38,-454.5 564.38,-454.5"/>
<text xml:space="preserve" text-anchor="middle" x="524.12" y="-433" font-family="Helvetica,sans-Serif" font-size="10.00">No faulty task found</text>
</g>
<!-- TickCheck&#45;&gt;NoFault -->
<g id="edge18" class="edge">
<title>TickCheck&#45;&gt;NoFault</title>
<path fill="none" stroke="black" d="M435.95,-575.61C449.38,-560.39 468.7,-537.35 483.12,-515.5 493.7,-499.47 503.76,-480.41 511.27,-465.14"/>
<polygon fill="black" stroke="black" points="514.42,-466.68 515.6,-456.15 508.11,-463.64 514.42,-466.68"/>
<text xml:space="preserve" text-anchor="middle" x="495.53" y="-542.45" font-family="Helvetica,sans-Serif" font-size="9.00">No faulty found</text>
</g>
<!-- TickBreak&#45;&gt;IncrementError -->
<g id="edge17" class="edge">
<title>TickBreak&#45;&gt;IncrementError</title>
<path fill="none" stroke="black" d="M381.89,-479.05C366.73,-459.05 341.71,-426.07 324.16,-402.92"/>
<polygon fill="black" stroke="black" points="327.12,-401.03 318.29,-395.18 321.54,-405.26 327.12,-401.03"/>
</g>
<!-- NoFault&#45;&gt;End -->
<g id="edge19" class="edge">
<title>NoFault&#45;&gt;End</title>
<path fill="none" stroke="black" d="M525.44,-418.05C526.92,-396.84 529.12,-359.94 529.12,-328.25 529.12,-328.25 529.12,-328.25 529.12,-104 529.12,-85.12 529.12,-63.88 529.12,-47.35"/>
<polygon fill="black" stroke="black" points="532.63,-47.77 529.13,-37.77 525.63,-47.77 532.63,-47.77"/>
</g>
<!-- CallHandler -->
<g id="node11" class="node">
<title>CallHandler</title>
<path fill="none" stroke="black" d="M138.25,-297C138.25,-297 12,-297 12,-297 6,-297 0,-291 0,-285 0,-285 0,-273 0,-273 0,-267 6,-261 12,-261 12,-261 138.25,-261 138.25,-261 144.25,-261 150.25,-267 150.25,-273 150.25,-273 150.25,-285 150.25,-285 150.25,-291 144.25,-297 138.25,-297"/>
<text xml:space="preserve" text-anchor="middle" x="75.12" y="-275.5" font-family="Helvetica,sans-Serif" font-size="10.00">Call DAQ_Task_Fault_Handler</text>
</g>
<!-- IncrementError&#45;&gt;CallHandler -->
<g id="edge8" class="edge">
<title>IncrementError&#45;&gt;CallHandler</title>
<path fill="none" stroke="black" d="M261.86,-357.06C224.01,-341.44 168.37,-318.48 127.68,-301.69"/>
<polygon fill="black" stroke="black" points="129.13,-298.5 118.55,-297.92 126.46,-304.97 129.13,-298.5"/>
</g>
<!-- RemoveTask -->
<g id="node14" class="node">
<title>RemoveTask</title>
<path fill="none" stroke="black" d="M461.88,-297C461.88,-297 198.38,-297 198.38,-297 192.38,-297 186.38,-291 186.38,-285 186.38,-285 186.38,-273 186.38,-273 186.38,-267 192.38,-261 198.38,-261 198.38,-261 461.88,-261 461.88,-261 467.88,-261 473.88,-267 473.88,-273 473.88,-273 473.88,-285 473.88,-285 473.88,-291 467.88,-297 461.88,-297"/>
<text xml:space="preserve" text-anchor="middle" x="330.12" y="-275.5" font-family="Helvetica,sans-Serif" font-size="10.00">Error count &gt;= DAQ_MAX_ERROR_COUNT &#45;&gt; Remove task</text>
</g>
<!-- IncrementError&#45;&gt;RemoveTask -->
<g id="edge12" class="edge">
<title>IncrementError&#45;&gt;RemoveTask</title>
<path fill="none" stroke="black" d="M308.89,-357.17C312.67,-343.45 318.02,-324.01 322.4,-308.07"/>
<polygon fill="black" stroke="black" points="325.71,-309.25 324.98,-298.68 318.96,-307.4 325.71,-309.25"/>
<text xml:space="preserve" text-anchor="middle" x="356.53" y="-323.95" font-family="Helvetica,sans-Serif" font-size="9.00">Error count &gt;= max</text>
</g>
<!-- SaveLog -->
<g id="node12" class="node">
<title>SaveLog</title>
<path fill="none" stroke="black" d="M382.12,-210C382.12,-210 252.12,-210 252.12,-210 246.12,-210 240.12,-204 240.12,-198 240.12,-198 240.12,-186 240.12,-186 240.12,-180 246.12,-174 252.12,-174 252.12,-174 382.12,-174 382.12,-174 388.12,-174 394.12,-180 394.12,-186 394.12,-186 394.12,-198 394.12,-198 394.12,-204 388.12,-210 382.12,-210"/>
<text xml:space="preserve" text-anchor="middle" x="317.12" y="-188.5" font-family="Helvetica,sans-Serif" font-size="10.00">Save fault log to backup SRAM</text>
</g>
<!-- CallHandler&#45;&gt;SaveLog -->
<g id="edge9" class="edge">
<title>CallHandler&#45;&gt;SaveLog</title>
<path fill="none" stroke="black" d="M124.68,-260.59C163.02,-247.13 216.26,-228.43 257.02,-214.11"/>
<polygon fill="black" stroke="black" points="257.93,-217.5 266.21,-210.88 255.61,-210.9 257.93,-217.5"/>
</g>
<!-- Stall -->
<g id="node13" class="node">
<title>Stall</title>
<path fill="none" stroke="black" d="M382.12,-123C382.12,-123 252.12,-123 252.12,-123 246.12,-123 240.12,-117 240.12,-111 240.12,-111 240.12,-99 240.12,-99 240.12,-93 246.12,-87 252.12,-87 252.12,-87 382.12,-87 382.12,-87 388.12,-87 394.12,-93 394.12,-99 394.12,-99 394.12,-111 394.12,-111 394.12,-117 388.12,-123 382.12,-123"/>
<text xml:space="preserve" text-anchor="middle" x="317.12" y="-101.5" font-family="Helvetica,sans-Serif" font-size="10.00">Stall system until WWDG reset</text>
</g>
<!-- SaveLog&#45;&gt;Stall -->
<g id="edge10" class="edge">
<title>SaveLog&#45;&gt;Stall</title>
<path fill="none" stroke="black" d="M317.12,-173.8C317.12,-162.58 317.12,-147.67 317.12,-134.69"/>
<polygon fill="black" stroke="black" points="320.63,-134.98 317.13,-124.98 313.63,-134.98 320.63,-134.98"/>
</g>
<!-- Stall&#45;&gt;End -->
<g id="edge11" class="edge">
<title>Stall&#45;&gt;End</title>
<path fill="none" stroke="black" d="M360.54,-86.59C397.47,-71.78 450.2,-50.64 486.82,-35.96"/>
<polygon fill="black" stroke="black" points="487.78,-39.35 495.76,-32.38 485.17,-32.85 487.78,-39.35"/>
</g>
</g>
</svg>
