<?xml version="1.0" encoding="UTF-8" standalone="no"?>
<!DOCTYPE svg PUBLIC "-//W3C//DTD SVG 1.1//EN"
 "http://www.w3.org/Graphics/SVG/1.1/DTD/svg11.dtd">
<!-- Generated by graphviz version 13.1.2 (20250808.2320)
 -->
<!-- Title: main.c Pages: 1 -->
<svg width="1284pt" height="252pt"
 viewBox="0.00 0.00 1284.00 252.00" xmlns="http://www.w3.org/2000/svg" xmlns:xlink="http://www.w3.org/1999/xlink">
<g id="graph0" class="graph" transform="scale(1 1) rotate(0) translate(4 248)">
<title>main.c</title>
<!-- Node1 -->
<g id="Node000001" class="node">
<title>Node1</title>
<g id="a_Node000001"><a xlink:title=": Main program body">
<polygon fill="#999999" stroke="#666666" points="504,-244 458.75,-244 458.75,-224 504,-224 504,-244"/>
<text xml:space="preserve" text-anchor="middle" x="481.38" y="-230.5" font-family="Helvetica,sans-Serif" font-size="10.00">main.c</text>
</a>
</g>
</g>
<!-- Node2 -->
<g id="Node000002" class="node">
<title>Node2</title>
<g id="a_Node000002"><a xlink:href="main_8h.html" target="_top" xlink:title=": Header for main.c file. This file contains the common defines of the application.">
<polygon fill="white" stroke="#666666" points="837,-76 791.75,-76 791.75,-56 837,-56 837,-76"/>
<text xml:space="preserve" text-anchor="middle" x="814.38" y="-62.5" font-family="Helvetica,sans-Serif" font-size="10.00">main.h</text>
</a>
</g>
</g>
<!-- Node1&#45;&gt;Node2 -->
<g id="edge1_Node000001_Node000002" class="edge">
<title>Node1&#45;&gt;Node2</title>
<g id="a_edge1_Node000001_Node000002"><a xlink:title=" ">
<path fill="none" stroke="#63b8ff" d="M504.32,-231.68C577.14,-227.25 799.47,-211.86 820.38,-188 844.77,-160.15 832.78,-113.39 822.91,-86.89"/>
<polygon fill="#63b8ff" stroke="#63b8ff" points="826.19,-85.67 819.22,-77.69 819.69,-88.27 826.19,-85.67"/>
</a>
</g>
</g>
<!-- Node15 -->
<g id="Node000015" class="node">
<title>Node15</title>
<g id="a_Node000015"><a xlink:title=" ">
<polygon fill="#e0e0e0" stroke="#999999" points="122.38,-188 82.38,-188 82.38,-168 122.38,-168 122.38,-188"/>
<text xml:space="preserve" text-anchor="middle" x="102.38" y="-174.5" font-family="Helvetica,sans-Serif" font-size="10.00">adc.h</text>
</a>
</g>
</g>
<!-- Node1&#45;&gt;Node15 -->
<g id="edge14_Node000001_Node000015" class="edge">
<title>Node1&#45;&gt;Node15</title>
<g id="a_edge14_Node000001_Node000015"><a xlink:title=" ">
<path fill="none" stroke="#63b8ff" d="M458.62,-231.45C404.09,-227.43 261.58,-215.24 133.97,-188.24"/>
<polygon fill="#63b8ff" stroke="#63b8ff" points="134.85,-184.84 124.33,-186.16 133.37,-191.69 134.85,-184.84"/>
</a>
</g>
</g>
<!-- Node16 -->
<g id="Node000016" class="node">
<title>Node16</title>
<g id="a_Node000016"><a xlink:title=" ">
<polygon fill="#e0e0e0" stroke="#999999" points="180.38,-188 140.38,-188 140.38,-168 180.38,-168 180.38,-188"/>
<text xml:space="preserve" text-anchor="middle" x="160.38" y="-174.5" font-family="Helvetica,sans-Serif" font-size="10.00">can.h</text>
</a>
</g>
</g>
<!-- Node1&#45;&gt;Node16 -->
<g id="edge15_Node000001_Node000016" class="edge">
<title>Node1&#45;&gt;Node16</title>
<g id="a_edge15_Node000001_Node000016"><a xlink:title=" ">
<path fill="none" stroke="#63b8ff" d="M458.44,-230.64C410.58,-225.46 296.49,-211.82 191.93,-188.31"/>
<polygon fill="#63b8ff" stroke="#63b8ff" points="192.87,-184.93 182.34,-186.11 191.31,-191.75 192.87,-184.93"/>
</a>
</g>
</g>
<!-- Node17 -->
<g id="Node000017" class="node">
<title>Node17</title>
<g id="a_Node000017"><a xlink:title=" ">
<polygon fill="#e0e0e0" stroke="#999999" points="241.88,-188 198.88,-188 198.88,-168 241.88,-168 241.88,-188"/>
<text xml:space="preserve" text-anchor="middle" x="220.38" y="-174.5" font-family="Helvetica,sans-Serif" font-size="10.00">dma.h</text>
</a>
</g>
</g>
<!-- Node1&#45;&gt;Node17 -->
<g id="edge16_Node000001_Node000017" class="edge">
<title>Node1&#45;&gt;Node17</title>
<g id="a_edge16_Node000001_Node000017"><a xlink:title=" ">
<path fill="none" stroke="#63b8ff" d="M458.26,-229.28C418.28,-222.67 333.45,-207.94 253.06,-188.49"/>
<polygon fill="#63b8ff" stroke="#63b8ff" points="254.28,-185.18 243.73,-186.2 252.61,-191.98 254.28,-185.18"/>
</a>
</g>
</g>
<!-- Node18 -->
<g id="Node000018" class="node">
<title>Node18</title>
<g id="a_Node000018"><a xlink:title=" ">
<polygon fill="#e0e0e0" stroke="#999999" points="296.88,-188 259.88,-188 259.88,-168 296.88,-168 296.88,-188"/>
<text xml:space="preserve" text-anchor="middle" x="278.38" y="-174.5" font-family="Helvetica,sans-Serif" font-size="10.00">i2c.h</text>
</a>
</g>
</g>
<!-- Node1&#45;&gt;Node18 -->
<g id="edge17_Node000001_Node000018" class="edge">
<title>Node1&#45;&gt;Node18</title>
<g id="a_edge17_Node000001_Node000018"><a xlink:title=" ">
<path fill="none" stroke="#63b8ff" d="M458.45,-227.69C426.7,-220.22 367.33,-205.84 308.23,-188.7"/>
<polygon fill="#63b8ff" stroke="#63b8ff" points="309.24,-185.35 298.66,-185.89 307.27,-192.06 309.24,-185.35"/>
</a>
</g>
</g>
<!-- Node19 -->
<g id="Node000019" class="node">
<title>Node19</title>
<g id="a_Node000019"><a xlink:title=" ">
<polygon fill="#e0e0e0" stroke="#999999" points="351.88,-188 314.88,-188 314.88,-168 351.88,-168 351.88,-188"/>
<text xml:space="preserve" text-anchor="middle" x="333.38" y="-174.5" font-family="Helvetica,sans-Serif" font-size="10.00">spi.h</text>
</a>
</g>
</g>
<!-- Node1&#45;&gt;Node19 -->
<g id="edge18_Node000001_Node000019" class="edge">
<title>Node1&#45;&gt;Node19</title>
<g id="a_edge18_Node000001_Node000019"><a xlink:title=" ">
<path fill="none" stroke="#63b8ff" d="M458.25,-224.56C432.53,-215.18 390.91,-199.99 362.86,-189.76"/>
<polygon fill="#63b8ff" stroke="#63b8ff" points="364.14,-186.5 353.54,-186.36 361.74,-193.07 364.14,-186.5"/>
</a>
</g>
</g>
<!-- Node20 -->
<g id="Node000020" class="node">
<title>Node20</title>
<g id="a_Node000020"><a xlink:title=" ">
<polygon fill="#e0e0e0" stroke="#999999" points="407.25,-188 369.5,-188 369.5,-168 407.25,-168 407.25,-188"/>
<text xml:space="preserve" text-anchor="middle" x="388.38" y="-174.5" font-family="Helvetica,sans-Serif" font-size="10.00">tim.h</text>
</a>
</g>
</g>
<!-- Node1&#45;&gt;Node20 -->
<g id="edge19_Node000001_Node000020" class="edge">
<title>Node1&#45;&gt;Node20</title>
<g id="a_edge19_Node000001_Node000020"><a xlink:title=" ">
<path fill="none" stroke="#63b8ff" d="M465.18,-223.59C451.13,-215.44 430.54,-203.48 414.22,-194"/>
<polygon fill="#63b8ff" stroke="#63b8ff" points="416.42,-191.23 406.01,-189.24 412.9,-197.29 416.42,-191.23"/>
</a>
</g>
</g>
<!-- Node21 -->
<g id="Node000021" class="node">
<title>Node21</title>
<g id="a_Node000021"><a xlink:title=" ">
<polygon fill="#e0e0e0" stroke="#999999" points="471.38,-188 425.38,-188 425.38,-168 471.38,-168 471.38,-188"/>
<text xml:space="preserve" text-anchor="middle" x="448.38" y="-174.5" font-family="Helvetica,sans-Serif" font-size="10.00">usart.h</text>
</a>
</g>
</g>
<!-- Node1&#45;&gt;Node21 -->
<g id="edge20_Node000001_Node000021" class="edge">
<title>Node1&#45;&gt;Node21</title>
<g id="a_edge20_Node000001_Node000021"><a xlink:title=" ">
<path fill="none" stroke="#63b8ff" d="M475.63,-223.59C471.32,-216.55 465.28,-206.67 459.99,-198"/>
<polygon fill="#63b8ff" stroke="#63b8ff" points="463.05,-196.3 454.85,-189.59 457.07,-199.95 463.05,-196.3"/>
</a>
</g>
</g>
<!-- Node22 -->
<g id="Node000022" class="node">
<title>Node22</title>
<g id="a_Node000022"><a xlink:title=" ">
<polygon fill="#e0e0e0" stroke="#999999" points="539.25,-188 489.5,-188 489.5,-168 539.25,-168 539.25,-188"/>
<text xml:space="preserve" text-anchor="middle" x="514.38" y="-174.5" font-family="Helvetica,sans-Serif" font-size="10.00">wwdg.h</text>
</a>
</g>
</g>
<!-- Node1&#45;&gt;Node22 -->
<g id="edge21_Node000001_Node000022" class="edge">
<title>Node1&#45;&gt;Node22</title>
<g id="a_edge21_Node000001_Node000022"><a xlink:title=" ">
<path fill="none" stroke="#63b8ff" d="M487.12,-223.59C491.43,-216.55 497.47,-206.67 502.76,-198"/>
<polygon fill="#63b8ff" stroke="#63b8ff" points="505.68,-199.95 507.9,-189.59 499.7,-196.3 505.68,-199.95"/>
</a>
</g>
</g>
<!-- Node23 -->
<g id="Node000023" class="node">
<title>Node23</title>
<g id="a_Node000023"><a xlink:title=" ">
<polygon fill="#e0e0e0" stroke="#999999" points="599.5,-188 557.25,-188 557.25,-168 599.5,-168 599.5,-188"/>
<text xml:space="preserve" text-anchor="middle" x="578.38" y="-174.5" font-family="Helvetica,sans-Serif" font-size="10.00">gpio.h</text>
</a>
</g>
</g>
<!-- Node1&#45;&gt;Node23 -->
<g id="edge22_Node000001_Node000023" class="edge">
<title>Node1&#45;&gt;Node23</title>
<g id="a_edge22_Node000001_Node000023"><a xlink:title=" ">
<path fill="none" stroke="#63b8ff" d="M498.27,-223.59C512.92,-215.44 534.4,-203.48 551.42,-194"/>
<polygon fill="#63b8ff" stroke="#63b8ff" points="552.99,-197.14 560.02,-189.22 549.58,-191.02 552.99,-197.14"/>
</a>
</g>
</g>
<!-- Node24 -->
<g id="Node000024" class="node">
<title>Node24</title>
<g id="a_Node000024"><a xlink:href="_d_a_q_8h_source.html" target="_top" xlink:title=" ">
<polygon fill="white" stroke="#666666" points="581.38,-132 535.38,-132 535.38,-112 581.38,-112 581.38,-132"/>
<text xml:space="preserve" text-anchor="middle" x="558.38" y="-118.5" font-family="Helvetica,sans-Serif" font-size="10.00">DAQ.h</text>
</a>
</g>
</g>
<!-- Node1&#45;&gt;Node24 -->
<g id="edge23_Node000001_Node000024" class="edge">
<title>Node1&#45;&gt;Node24</title>
<g id="a_edge23_Node000001_Node000024"><a xlink:title=" ">
<path fill="none" stroke="#63b8ff" d="M504.38,-232.38C534.08,-230.18 584.75,-221.43 608.38,-188 620.62,-170.67 601.66,-151.49 583.69,-138.49"/>
<polygon fill="#63b8ff" stroke="#63b8ff" points="586.04,-135.85 575.8,-133.14 582.11,-141.65 586.04,-135.85"/>
</a>
</g>
</g>
<!-- Node29 -->
<g id="Node000029" class="node">
<title>Node29</title>
<g id="a_Node000029"><a xlink:href="_position_8h_source.html" target="_top" xlink:title=" ">
<polygon fill="white" stroke="#666666" points="715.12,-188 655.62,-188 655.62,-168 715.12,-168 715.12,-188"/>
<text xml:space="preserve" text-anchor="middle" x="685.38" y="-174.5" font-family="Helvetica,sans-Serif" font-size="10.00">Position.h</text>
</a>
</g>
</g>
<!-- Node1&#45;&gt;Node29 -->
<g id="edge33_Node000001_Node000029" class="edge">
<title>Node1&#45;&gt;Node29</title>
<g id="a_edge33_Node000001_Node000029"><a xlink:title=" ">
<path fill="none" stroke="#63b8ff" d="M504.38,-226.91C538.26,-217.94 602.12,-201.04 644.2,-189.9"/>
<polygon fill="#63b8ff" stroke="#63b8ff" points="644.96,-193.32 653.73,-187.38 643.17,-186.55 644.96,-193.32"/>
</a>
</g>
</g>
<!-- Node30 -->
<g id="Node000030" class="node">
<title>Node30</title>
<g id="a_Node000030"><a xlink:href="_proximity_8h_source.html" target="_top" xlink:title=" ">
<polygon fill="white" stroke="#666666" points="64.75,-188 0,-188 0,-168 64.75,-168 64.75,-188"/>
<text xml:space="preserve" text-anchor="middle" x="32.38" y="-174.5" font-family="Helvetica,sans-Serif" font-size="10.00">Proximity.h</text>
</a>
</g>
</g>
<!-- Node1&#45;&gt;Node30 -->
<g id="edge36_Node000001_Node000030" class="edge">
<title>Node1&#45;&gt;Node30</title>
<g id="a_edge36_Node000001_Node000030"><a xlink:title=" ">
<path fill="none" stroke="#63b8ff" d="M458.25,-231.32C397.38,-226.7 227.51,-212.64 76.3,-188.33"/>
<polygon fill="#63b8ff" stroke="#63b8ff" points="76.92,-184.88 66.48,-186.73 75.79,-191.79 76.92,-184.88"/>
</a>
</g>
</g>
<!-- Node31 -->
<g id="Node000031" class="node">
<title>Node31</title>
<g id="a_Node000031"><a xlink:href="_i_m_u_8h_source.html" target="_top" xlink:title=" ">
<polygon fill="white" stroke="#666666" points="923.88,-188 880.88,-188 880.88,-168 923.88,-168 923.88,-188"/>
<text xml:space="preserve" text-anchor="middle" x="902.38" y="-174.5" font-family="Helvetica,sans-Serif" font-size="10.00">IMU.h</text>
</a>
</g>
</g>
<!-- Node1&#45;&gt;Node31 -->
<g id="edge40_Node000001_Node000031" class="edge">
<title>Node1&#45;&gt;Node31</title>
<g id="a_edge40_Node000001_Node000031"><a xlink:title=" ">
<path fill="none" stroke="#63b8ff" d="M504.09,-230.74C562.3,-224.85 721.53,-208.06 853.38,-188 858.52,-187.22 863.95,-186.31 869.24,-185.37"/>
<polygon fill="#63b8ff" stroke="#63b8ff" points="869.77,-188.83 878.98,-183.59 868.52,-181.94 869.77,-188.83"/>
</a>
</g>
</g>
<!-- Node32 -->
<g id="Node000032" class="node">
<title>Node32</title>
<g id="a_Node000032"><a xlink:href="_g_p_s_8h_source.html" target="_top" xlink:title=" ">
<polygon fill="white" stroke="#666666" points="1109,-188 1063.75,-188 1063.75,-168 1109,-168 1109,-188"/>
<text xml:space="preserve" text-anchor="middle" x="1086.38" y="-174.5" font-family="Helvetica,sans-Serif" font-size="10.00">GPS.h</text>
</a>
</g>
</g>
<!-- Node1&#45;&gt;Node32 -->
<g id="edge46_Node000001_Node000032" class="edge">
<title>Node1&#45;&gt;Node32</title>
<g id="a_edge46_Node000001_Node000032"><a xlink:title=" ">
<path fill="none" stroke="#63b8ff" d="M504.35,-230.95C596.72,-222.7 941.31,-191.95 1051.94,-182.07"/>
<polygon fill="#63b8ff" stroke="#63b8ff" points="1052.22,-185.56 1061.87,-181.19 1051.59,-178.59 1052.22,-185.56"/>
</a>
</g>
</g>
<!-- Node35 -->
<g id="Node000035" class="node">
<title>Node35</title>
<g id="a_Node000035"><a xlink:href="_temperature_8h_source.html" target="_top" xlink:title=" ">
<polygon fill="white" stroke="#666666" points="811.5,-188 733.25,-188 733.25,-168 811.5,-168 811.5,-188"/>
<text xml:space="preserve" text-anchor="middle" x="772.38" y="-174.5" font-family="Helvetica,sans-Serif" font-size="10.00">Temperature.h</text>
</a>
</g>
</g>
<!-- Node1&#45;&gt;Node35 -->
<g id="edge54_Node000001_Node000035" class="edge">
<title>Node1&#45;&gt;Node35</title>
<g id="a_edge54_Node000001_Node000035"><a xlink:title=" ">
<path fill="none" stroke="#63b8ff" d="M504.5,-228.74C545.88,-221.1 635.64,-204.52 721.55,-188.52"/>
<polygon fill="#63b8ff" stroke="#63b8ff" points="722.15,-191.97 731.34,-186.7 720.86,-185.09 722.15,-191.97"/>
</a>
</g>
</g>
<!-- Node3 -->
<g id="Node000003" class="node">
<title>Node3</title>
<g id="a_Node000003"><a xlink:title=" ">
<polygon fill="#e0e0e0" stroke="#999999" points="399.38,-20 311.38,-20 311.38,0 399.38,0 399.38,-20"/>
<text xml:space="preserve" text-anchor="middle" x="355.38" y="-6.5" font-family="Helvetica,sans-Serif" font-size="10.00">stm32f4xx_hal.h</text>
</a>
</g>
</g>
<!-- Node2&#45;&gt;Node3 -->
<g id="edge2_Node000002_Node000003" class="edge">
<title>Node2&#45;&gt;Node3</title>
<g id="a_edge2_Node000002_Node000003"><a xlink:title=" ">
<path fill="none" stroke="#63b8ff" d="M791.42,-62.93C730.99,-57.36 562.27,-41.2 410.92,-20.28"/>
<polygon fill="#63b8ff" stroke="#63b8ff" points="411.48,-16.83 401.09,-18.91 410.51,-23.76 411.48,-16.83"/>
</a>
</g>
</g>
<!-- Node4 -->
<g id="Node000004" class="node">
<title>Node4</title>
<g id="a_Node000004"><a xlink:title=" ">
<polygon fill="#e0e0e0" stroke="#999999" points="825.25,-20 769.5,-20 769.5,0 825.25,0 825.25,-20"/>
<text xml:space="preserve" text-anchor="middle" x="797.38" y="-6.5" font-family="Helvetica,sans-Serif" font-size="10.00">stdbool.h</text>
</a>
</g>
</g>
<!-- Node2&#45;&gt;Node4 -->
<g id="edge3_Node000002_Node000004" class="edge">
<title>Node2&#45;&gt;Node4</title>
<g id="a_edge3_Node000002_Node000004"><a xlink:title=" ">
<path fill="none" stroke="#63b8ff" d="M811.41,-55.59C809.29,-48.86 806.36,-39.53 803.72,-31.15"/>
<polygon fill="#63b8ff" stroke="#63b8ff" points="807.1,-30.23 800.76,-21.74 800.42,-32.33 807.1,-30.23"/>
</a>
</g>
</g>
<!-- Node5 -->
<g id="Node000005" class="node">
<title>Node5</title>
<g id="a_Node000005"><a xlink:title=" ">
<polygon fill="#e0e0e0" stroke="#999999" points="1225.38,-20 1179.38,-20 1179.38,0 1225.38,0 1225.38,-20"/>
<text xml:space="preserve" text-anchor="middle" x="1202.38" y="-6.5" font-family="Helvetica,sans-Serif" font-size="10.00">math.h</text>
</a>
</g>
</g>
<!-- Node2&#45;&gt;Node5 -->
<g id="edge4_Node000002_Node000005" class="edge">
<title>Node2&#45;&gt;Node5</title>
<g id="a_edge4_Node000002_Node000005"><a xlink:title=" ">
<path fill="none" stroke="#63b8ff" d="M837.47,-63.28C892.9,-58.89 1037.9,-45.92 1168.11,-20.19"/>
<polygon fill="#63b8ff" stroke="#63b8ff" points="1168.46,-23.69 1177.57,-18.29 1167.08,-16.83 1168.46,-23.69"/>
</a>
</g>
</g>
<!-- Node6 -->
<g id="Node000006" class="node">
<title>Node6</title>
<g id="a_Node000006"><a xlink:title=" ">
<polygon fill="#e0e0e0" stroke="#999999" points="1161.5,-20 1113.25,-20 1113.25,0 1161.5,0 1161.5,-20"/>
<text xml:space="preserve" text-anchor="middle" x="1137.38" y="-6.5" font-family="Helvetica,sans-Serif" font-size="10.00">string.h</text>
</a>
</g>
</g>
<!-- Node2&#45;&gt;Node6 -->
<g id="edge5_Node000002_Node000006" class="edge">
<title>Node2&#45;&gt;Node6</title>
<g id="a_edge5_Node000002_Node000006"><a xlink:title=" ">
<path fill="none" stroke="#63b8ff" d="M837.47,-62.31C885.11,-56.58 997.9,-42.03 1101.93,-20.32"/>
<polygon fill="#63b8ff" stroke="#63b8ff" points="1102.4,-23.8 1111.46,-18.31 1100.95,-16.95 1102.4,-23.8"/>
</a>
</g>
</g>
<!-- Node7 -->
<g id="Node000007" class="node">
<title>Node7</title>
<g id="a_Node000007"><a xlink:title=" ">
<polygon fill="#e0e0e0" stroke="#999999" points="1095.12,-20 1047.62,-20 1047.62,0 1095.12,0 1095.12,-20"/>
<text xml:space="preserve" text-anchor="middle" x="1071.38" y="-6.5" font-family="Helvetica,sans-Serif" font-size="10.00">stdlib.h</text>
</a>
</g>
</g>
<!-- Node2&#45;&gt;Node7 -->
<g id="edge6_Node000002_Node000007" class="edge">
<title>Node2&#45;&gt;Node7</title>
<g id="a_edge6_Node000002_Node000007"><a xlink:title=" ">
<path fill="none" stroke="#63b8ff" d="M837.5,-60.98C876.58,-54.06 958.38,-39.02 1036.34,-20.6"/>
<polygon fill="#63b8ff" stroke="#63b8ff" points="1036.93,-24.06 1045.84,-18.33 1035.3,-17.25 1036.93,-24.06"/>
</a>
</g>
</g>
<!-- Node8 -->
<g id="Node000008" class="node">
<title>Node8</title>
<g id="a_Node000008"><a xlink:title=" ">
<polygon fill="#e0e0e0" stroke="#999999" points="487.75,-20 417,-20 417,0 487.75,0 487.75,-20"/>
<text xml:space="preserve" text-anchor="middle" x="452.38" y="-6.5" font-family="Helvetica,sans-Serif" font-size="10.00">FreeRTOS.h</text>
</a>
</g>
</g>
<!-- Node2&#45;&gt;Node8 -->
<g id="edge7_Node000002_Node000008" class="edge">
<title>Node2&#45;&gt;Node8</title>
<g id="a_edge7_Node000002_Node000008"><a xlink:title=" ">
<path fill="none" stroke="#63b8ff" d="M791.63,-62.22C741.09,-55.94 615.42,-39.82 499.4,-20.26"/>
<polygon fill="#63b8ff" stroke="#63b8ff" points="500.14,-16.83 489.69,-18.61 498.97,-23.74 500.14,-16.83"/>
</a>
</g>
</g>
<!-- Node9 -->
<g id="Node000009" class="node">
<title>Node9</title>
<g id="a_Node000009"><a xlink:title=" ">
<polygon fill="#e0e0e0" stroke="#999999" points="885.88,-20 842.88,-20 842.88,0 885.88,0 885.88,-20"/>
<text xml:space="preserve" text-anchor="middle" x="864.38" y="-6.5" font-family="Helvetica,sans-Serif" font-size="10.00">task.h</text>
</a>
</g>
</g>
<!-- Node2&#45;&gt;Node9 -->
<g id="edge8_Node000002_Node000009" class="edge">
<title>Node2&#45;&gt;Node9</title>
<g id="a_edge8_Node000002_Node000009"><a xlink:title=" ">
<path fill="none" stroke="#63b8ff" d="M823.08,-55.59C829.97,-48.16 839.77,-37.58 848.09,-28.58"/>
<polygon fill="#63b8ff" stroke="#63b8ff" points="850.51,-31.12 854.74,-21.41 845.37,-26.37 850.51,-31.12"/>
</a>
</g>
</g>
<!-- Node10 -->
<g id="Node000010" class="node">
<title>Node10</title>
<g id="a_Node000010"><a xlink:title=" ">
<polygon fill="#e0e0e0" stroke="#999999" points="960.62,-20 904.12,-20 904.12,0 960.62,0 960.62,-20"/>
<text xml:space="preserve" text-anchor="middle" x="932.38" y="-6.5" font-family="Helvetica,sans-Serif" font-size="10.00">semphr.h</text>
</a>
</g>
</g>
<!-- Node2&#45;&gt;Node10 -->
<g id="edge9_Node000002_Node000010" class="edge">
<title>Node2&#45;&gt;Node10</title>
<g id="a_edge9_Node000002_Node000010"><a xlink:title=" ">
<path fill="none" stroke="#63b8ff" d="M834.93,-55.59C853.26,-47.21 880.36,-34.8 901.33,-25.21"/>
<polygon fill="#63b8ff" stroke="#63b8ff" points="902.65,-28.45 910.28,-21.11 899.73,-22.09 902.65,-28.45"/>
</a>
</g>
</g>
<!-- Node11 -->
<g id="Node000011" class="node">
<title>Node11</title>
<g id="a_Node000011"><a xlink:title=" ">
<polygon fill="#e0e0e0" stroke="#999999" points="556.62,-20 506.12,-20 506.12,0 556.62,0 556.62,-20"/>
<text xml:space="preserve" text-anchor="middle" x="531.38" y="-6.5" font-family="Helvetica,sans-Serif" font-size="10.00">queue.h</text>
</a>
</g>
</g>
<!-- Node2&#45;&gt;Node11 -->
<g id="edge10_Node000002_Node000011" class="edge">
<title>Node2&#45;&gt;Node11</title>
<g id="a_edge10_Node000002_Node000011"><a xlink:title=" ">
<path fill="none" stroke="#63b8ff" d="M791.36,-61.39C749.18,-54.66 656.48,-39.32 567.99,-20.21"/>
<polygon fill="#63b8ff" stroke="#63b8ff" points="568.93,-16.83 558.42,-18.12 567.44,-23.67 568.93,-16.83"/>
</a>
</g>
</g>
<!-- Node12 -->
<g id="Node000012" class="node">
<title>Node12</title>
<g id="a_Node000012"><a xlink:title=" ">
<polygon fill="#e0e0e0" stroke="#999999" points="1030,-20 978.75,-20 978.75,0 1030,0 1030,-20"/>
<text xml:space="preserve" text-anchor="middle" x="1004.38" y="-6.5" font-family="Helvetica,sans-Serif" font-size="10.00">timers.h</text>
</a>
</g>
</g>
<!-- Node2&#45;&gt;Node12 -->
<g id="edge11_Node000002_Node000012" class="edge">
<title>Node2&#45;&gt;Node12</title>
<g id="a_edge11_Node000002_Node000012"><a xlink:title=" ">
<path fill="none" stroke="#63b8ff" d="M837.29,-58.49C869.63,-49.3 929.01,-32.42 967.57,-21.46"/>
<polygon fill="#63b8ff" stroke="#63b8ff" points="968.22,-24.91 976.88,-18.81 966.3,-18.18 968.22,-24.91"/>
</a>
</g>
</g>
<!-- Node13 -->
<g id="Node000013" class="node">
<title>Node13</title>
<g id="a_Node000013"><a xlink:title=" ">
<polygon fill="#e0e0e0" stroke="#999999" points="657.75,-20 575,-20 575,0 657.75,0 657.75,-20"/>
<text xml:space="preserve" text-anchor="middle" x="616.38" y="-6.5" font-family="Helvetica,sans-Serif" font-size="10.00">event_groups.h</text>
</a>
</g>
</g>
<!-- Node2&#45;&gt;Node13 -->
<g id="edge12_Node000002_Node000013" class="edge">
<title>Node2&#45;&gt;Node13</title>
<g id="a_edge12_Node000002_Node000013"><a xlink:title=" ">
<path fill="none" stroke="#63b8ff" d="M791.27,-58.7C759.66,-50.08 702.25,-34.42 661.85,-23.4"/>
<polygon fill="#63b8ff" stroke="#63b8ff" points="662.97,-20.08 652.4,-20.83 661.13,-26.83 662.97,-20.08"/>
</a>
</g>
</g>
<!-- Node14 -->
<g id="Node000014" class="node">
<title>Node14</title>
<g id="a_Node000014"><a xlink:title=" ">
<polygon fill="#e0e0e0" stroke="#999999" points="751,-20 675.75,-20 675.75,0 751,0 751,-20"/>
<text xml:space="preserve" text-anchor="middle" x="713.38" y="-6.5" font-family="Helvetica,sans-Serif" font-size="10.00">trcRecorder.h</text>
</a>
</g>
</g>
<!-- Node2&#45;&gt;Node14 -->
<g id="edge13_Node000002_Node000014" class="edge">
<title>Node2&#45;&gt;Node14</title>
<g id="a_edge13_Node000002_Node000014"><a xlink:title=" ">
<path fill="none" stroke="#63b8ff" d="M796.78,-55.59C781.45,-47.4 758.96,-35.37 741.19,-25.87"/>
<polygon fill="#63b8ff" stroke="#63b8ff" points="742.91,-22.82 732.44,-21.19 739.61,-28.99 742.91,-22.82"/>
</a>
</g>
</g>
<!-- Node24&#45;&gt;Node2 -->
<g id="edge30_Node000024_Node000002" class="edge">
<title>Node24&#45;&gt;Node2</title>
<g id="a_edge30_Node000024_Node000002"><a xlink:title=" ">
<path fill="none" stroke="#63b8ff" d="M581.54,-116.11C626.86,-106.55 727.39,-85.35 780.3,-74.19"/>
<polygon fill="#63b8ff" stroke="#63b8ff" points="780.9,-77.64 789.96,-72.15 779.45,-70.79 780.9,-77.64"/>
</a>
</g>
</g>
<!-- Node24&#45;&gt;Node3 -->
<g id="edge29_Node000024_Node000003" class="edge">
<title>Node24&#45;&gt;Node3</title>
<g id="a_edge29_Node000024_Node000003"><a xlink:title=" ">
<path fill="none" stroke="#63b8ff" d="M541.07,-111.62C505.71,-92.46 424.96,-48.71 382.55,-25.72"/>
<polygon fill="#63b8ff" stroke="#63b8ff" points="384.43,-22.76 373.97,-21.08 381.09,-28.92 384.43,-22.76"/>
</a>
</g>
</g>
<!-- Node24&#45;&gt;Node8 -->
<g id="edge26_Node000024_Node000008" class="edge">
<title>Node24&#45;&gt;Node8</title>
<g id="a_edge26_Node000024_Node000008"><a xlink:title=" ">
<path fill="none" stroke="#63b8ff" d="M549.34,-111.62C531.58,-93.19 491.89,-52.01 469.18,-28.44"/>
<polygon fill="#63b8ff" stroke="#63b8ff" points="471.9,-26.22 462.44,-21.44 466.86,-31.07 471.9,-26.22"/>
</a>
</g>
</g>
<!-- Node24&#45;&gt;Node11 -->
<g id="edge27_Node000024_Node000011" class="edge">
<title>Node24&#45;&gt;Node11</title>
<g id="a_edge27_Node000024_Node000011"><a xlink:title=" ">
<path fill="none" stroke="#63b8ff" d="M556.07,-111.62C551.73,-93.92 542.23,-55.24 536.36,-31.32"/>
<polygon fill="#63b8ff" stroke="#63b8ff" points="539.81,-30.7 534.03,-21.82 533.02,-32.37 539.81,-30.7"/>
</a>
</g>
</g>
<!-- Node25 -->
<g id="Node000025" class="node">
<title>Node25</title>
<g id="a_Node000025"><a xlink:title=" ">
<polygon fill="#e0e0e0" stroke="#999999" points="293.5,-20 245.25,-20 245.25,0 293.5,0 293.5,-20"/>
<text xml:space="preserve" text-anchor="middle" x="269.38" y="-6.5" font-family="Helvetica,sans-Serif" font-size="10.00">stdint.h</text>
</a>
</g>
</g>
<!-- Node24&#45;&gt;Node25 -->
<g id="edge24_Node000024_Node000025" class="edge">
<title>Node24&#45;&gt;Node25</title>
<g id="a_edge24_Node000024_Node000025"><a xlink:title=" ">
<path fill="none" stroke="#63b8ff" d="M535.09,-121.65C490.54,-121.87 391.52,-117.22 322.38,-76 303.86,-64.96 289.03,-44.95 279.82,-30.03"/>
<polygon fill="#63b8ff" stroke="#63b8ff" points="282.95,-28.46 274.9,-21.58 276.91,-31.99 282.95,-28.46"/>
</a>
</g>
</g>
<!-- Node26 -->
<g id="Node000026" class="node">
<title>Node26</title>
<g id="a_Node000026"><a xlink:title=" ">
<polygon fill="#e0e0e0" stroke="#999999" points="611,-76 559.75,-76 559.75,-56 611,-56 611,-76"/>
<text xml:space="preserve" text-anchor="middle" x="585.38" y="-62.5" font-family="Helvetica,sans-Serif" font-size="10.00">assert.h</text>
</a>
</g>
</g>
<!-- Node24&#45;&gt;Node26 -->
<g id="edge25_Node000024_Node000026" class="edge">
<title>Node24&#45;&gt;Node26</title>
<g id="a_edge25_Node000024_Node000026"><a xlink:title=" ">
<path fill="none" stroke="#63b8ff" d="M563.08,-111.59C566.52,-104.7 571.32,-95.1 575.59,-86.57"/>
<polygon fill="#63b8ff" stroke="#63b8ff" points="578.71,-88.16 580.05,-77.65 572.45,-85.03 578.71,-88.16"/>
</a>
</g>
</g>
<!-- Node27 -->
<g id="Node000027" class="node">
<title>Node27</title>
<g id="a_Node000027"><a xlink:title=" ">
<polygon fill="#e0e0e0" stroke="#999999" points="221.62,-76 141.12,-76 141.12,-56 221.62,-56 221.62,-76"/>
<text xml:space="preserve" text-anchor="middle" x="181.38" y="-62.5" font-family="Helvetica,sans-Serif" font-size="10.00">stm32f446xx.h</text>
</a>
</g>
</g>
<!-- Node24&#45;&gt;Node27 -->
<g id="edge28_Node000024_Node000027" class="edge">
<title>Node24&#45;&gt;Node27</title>
<g id="a_edge28_Node000024_Node000027"><a xlink:title=" ">
<path fill="none" stroke="#63b8ff" d="M535.08,-117.66C475.43,-109.12 316.11,-86.3 233.17,-74.42"/>
<polygon fill="#63b8ff" stroke="#63b8ff" points="233.89,-70.99 223.49,-73.03 232.89,-77.92 233.89,-70.99"/>
</a>
</g>
</g>
<!-- Node28 -->
<g id="Node000028" class="node">
<title>Node28</title>
<g id="a_Node000028"><a xlink:href="_d_a_q___config_8h_source.html" target="_top" xlink:title=" ">
<polygon fill="white" stroke="#666666" points="411.25,-76 331.5,-76 331.5,-56 411.25,-56 411.25,-76"/>
<text xml:space="preserve" text-anchor="middle" x="371.38" y="-62.5" font-family="Helvetica,sans-Serif" font-size="10.00">DAQ_Config.h</text>
</a>
</g>
</g>
<!-- Node24&#45;&gt;Node28 -->
<g id="edge31_Node000024_Node000028" class="edge">
<title>Node24&#45;&gt;Node28</title>
<g id="a_edge31_Node000024_Node000028"><a xlink:title=" ">
<path fill="none" stroke="#63b8ff" d="M535.07,-114.27C505.04,-105.6 452.24,-90.35 414.73,-79.52"/>
<polygon fill="#63b8ff" stroke="#63b8ff" points="416.14,-76.28 405.56,-76.87 414.2,-83.01 416.14,-76.28"/>
</a>
</g>
</g>
<!-- Node28&#45;&gt;Node25 -->
<g id="edge32_Node000028_Node000025" class="edge">
<title>Node28&#45;&gt;Node25</title>
<g id="a_edge32_Node000028_Node000025"><a xlink:title=" ">
<path fill="none" stroke="#63b8ff" d="M353.61,-55.59C338.05,-47.36 315.19,-35.26 297.21,-25.74"/>
<polygon fill="#63b8ff" stroke="#63b8ff" points="299.09,-22.77 288.62,-21.19 295.82,-28.96 299.09,-22.77"/>
</a>
</g>
</g>
<!-- Node29&#45;&gt;Node2 -->
<g id="edge34_Node000029_Node000002" class="edge">
<title>Node29&#45;&gt;Node2</title>
<g id="a_edge34_Node000029_Node000002"><a xlink:title=" ">
<path fill="none" stroke="#63b8ff" d="M696.37,-167.62C718.17,-149.03 767.14,-107.28 794.65,-83.82"/>
<polygon fill="#63b8ff" stroke="#63b8ff" points="796.91,-86.49 802.25,-77.34 792.37,-81.16 796.91,-86.49"/>
</a>
</g>
</g>
<!-- Node29&#45;&gt;Node24 -->
<g id="edge35_Node000029_Node000024" class="edge">
<title>Node29&#45;&gt;Node24</title>
<g id="a_edge35_Node000029_Node000024"><a xlink:title=" ">
<path fill="none" stroke="#63b8ff" d="M663.25,-167.59C643.34,-159.13 613.82,-146.58 591.17,-136.94"/>
<polygon fill="#63b8ff" stroke="#63b8ff" points="592.63,-133.76 582.06,-133.07 589.9,-140.21 592.63,-133.76"/>
</a>
</g>
</g>
<!-- Node30&#45;&gt;Node3 -->
<g id="edge38_Node000030_Node000003" class="edge">
<title>Node30&#45;&gt;Node3</title>
<g id="a_edge38_Node000030_Node000003"><a xlink:title=" ">
<path fill="none" stroke="#63b8ff" d="M37.17,-167.59C49.5,-144.44 84.68,-84.57 132.38,-56 139.6,-51.67 236.13,-33.15 299.8,-21.26"/>
<polygon fill="#63b8ff" stroke="#63b8ff" points="300.21,-24.74 309.39,-19.47 298.92,-17.86 300.21,-24.74"/>
</a>
</g>
</g>
<!-- Node30&#45;&gt;Node24 -->
<g id="edge39_Node000030_Node000024" class="edge">
<title>Node30&#45;&gt;Node24</title>
<g id="a_edge39_Node000030_Node000024"><a xlink:title=" ">
<path fill="none" stroke="#63b8ff" d="M64.98,-169.46C67.81,-168.92 70.64,-168.43 73.38,-168 241.07,-141.92 443.92,-129.07 523.73,-124.74"/>
<polygon fill="#63b8ff" stroke="#63b8ff" points="523.72,-128.25 533.52,-124.22 523.35,-121.26 523.72,-128.25"/>
</a>
</g>
</g>
<!-- Node30&#45;&gt;Node27 -->
<g id="edge37_Node000030_Node000027" class="edge">
<title>Node30&#45;&gt;Node27</title>
<g id="a_edge37_Node000030_Node000027"><a xlink:title=" ">
<path fill="none" stroke="#63b8ff" d="M45.08,-167.62C70.59,-148.79 128.3,-106.18 159.82,-82.91"/>
<polygon fill="#63b8ff" stroke="#63b8ff" points="161.52,-86.01 167.49,-77.25 157.36,-80.38 161.52,-86.01"/>
</a>
</g>
</g>
<!-- Node31&#45;&gt;Node2 -->
<g id="edge41_Node000031_Node000002" class="edge">
<title>Node31&#45;&gt;Node2</title>
<g id="a_edge41_Node000031_Node000002"><a xlink:title=" ">
<path fill="none" stroke="#63b8ff" d="M894.87,-167.62C880.26,-149.36 847.76,-108.73 828.83,-85.07"/>
<polygon fill="#63b8ff" stroke="#63b8ff" points="831.78,-83.16 822.8,-77.54 826.32,-87.53 831.78,-83.16"/>
</a>
</g>
</g>
<!-- Node31&#45;&gt;Node5 -->
<g id="edge43_Node000031_Node000005" class="edge">
<title>Node31&#45;&gt;Node5</title>
<g id="a_edge43_Node000031_Node000005"><a xlink:title=" ">
<path fill="none" stroke="#63b8ff" d="M921.86,-167.67C940.2,-158.79 968.37,-144.9 992.38,-132 1059.94,-95.69 1137.76,-49.74 1176.97,-26.29"/>
<polygon fill="#63b8ff" stroke="#63b8ff" points="1178.67,-29.35 1185.45,-21.21 1175.07,-23.35 1178.67,-29.35"/>
</a>
</g>
</g>
<!-- Node31&#45;&gt;Node6 -->
<g id="edge45_Node000031_Node000006" class="edge">
<title>Node31&#45;&gt;Node6</title>
<g id="a_edge45_Node000031_Node000006"><a xlink:title=" ">
<path fill="none" stroke="#63b8ff" d="M915.68,-167.6C954.3,-140.32 1066.69,-60.93 1114.94,-26.85"/>
<polygon fill="#63b8ff" stroke="#63b8ff" points="1116.83,-29.8 1122.98,-21.17 1112.79,-24.08 1116.83,-29.8"/>
</a>
</g>
</g>
<!-- Node31&#45;&gt;Node7 -->
<g id="edge44_Node000031_Node000007" class="edge">
<title>Node31&#45;&gt;Node7</title>
<g id="a_edge44_Node000031_Node000007"><a xlink:title=" ">
<path fill="none" stroke="#63b8ff" d="M905.26,-167.83C912.65,-145.73 934.22,-88.95 970.38,-56 980.7,-46.6 1011.9,-33.35 1036.92,-23.66"/>
<polygon fill="#63b8ff" stroke="#63b8ff" points="1038.02,-26.99 1046.12,-20.16 1035.53,-20.45 1038.02,-26.99"/>
</a>
</g>
</g>
<!-- Node31&#45;&gt;Node24 -->
<g id="edge42_Node000031_Node000024" class="edge">
<title>Node31&#45;&gt;Node24</title>
<g id="a_edge42_Node000031_Node000024"><a xlink:title=" ">
<path fill="none" stroke="#63b8ff" d="M880.6,-173.58C822.52,-164.46 663.57,-139.51 592.96,-128.43"/>
<polygon fill="#63b8ff" stroke="#63b8ff" points="593.55,-124.98 583.13,-126.89 592.46,-131.89 593.55,-124.98"/>
</a>
</g>
</g>
<!-- Node32&#45;&gt;Node2 -->
<g id="edge52_Node000032_Node000002" class="edge">
<title>Node32&#45;&gt;Node2</title>
<g id="a_edge52_Node000032_Node000002"><a xlink:title=" ">
<path fill="none" stroke="#63b8ff" d="M1063.65,-167.81C1015.65,-148.4 903.75,-103.14 847.66,-80.46"/>
<polygon fill="#63b8ff" stroke="#63b8ff" points="849.21,-77.31 838.63,-76.81 846.59,-83.8 849.21,-77.31"/>
</a>
</g>
</g>
<!-- Node32&#45;&gt;Node5 -->
<g id="edge50_Node000032_Node000005" class="edge">
<title>Node32&#45;&gt;Node5</title>
<g id="a_edge50_Node000032_Node000005"><a xlink:title=" ">
<path fill="none" stroke="#63b8ff" d="M1109.34,-168.57C1126.21,-161.29 1148.53,-149.2 1162.38,-132 1186.35,-102.22 1196.18,-57.51 1200.04,-31.6"/>
<polygon fill="#63b8ff" stroke="#63b8ff" points="1203.51,-32.1 1201.33,-21.73 1196.57,-31.2 1203.51,-32.1"/>
</a>
</g>
</g>
<!-- Node32&#45;&gt;Node6 -->
<g id="edge48_Node000032_Node000006" class="edge">
<title>Node32&#45;&gt;Node6</title>
<g id="a_edge48_Node000032_Node000006"><a xlink:title=" ">
<path fill="none" stroke="#63b8ff" d="M1106.81,-167.61C1120.48,-160.11 1137.37,-148.16 1145.38,-132 1161.43,-99.57 1152.32,-56.14 1144.6,-31.11"/>
<polygon fill="#63b8ff" stroke="#63b8ff" points="1148,-30.24 1141.52,-21.86 1141.36,-32.45 1148,-30.24"/>
</a>
</g>
</g>
<!-- Node32&#45;&gt;Node7 -->
<g id="edge49_Node000032_Node000007" class="edge">
<title>Node32&#45;&gt;Node7</title>
<g id="a_edge49_Node000032_Node000007"><a xlink:title=" ">
<path fill="none" stroke="#63b8ff" d="M1084.69,-167.72C1083.09,-158.65 1080.75,-144.42 1079.38,-132 1075.49,-96.88 1073.26,-55.8 1072.19,-31.67"/>
<polygon fill="#63b8ff" stroke="#63b8ff" points="1075.69,-31.8 1071.78,-21.95 1068.7,-32.09 1075.69,-31.8"/>
</a>
</g>
</g>
<!-- Node32&#45;&gt;Node24 -->
<g id="edge53_Node000032_Node000024" class="edge">
<title>Node32&#45;&gt;Node24</title>
<g id="a_edge53_Node000032_Node000024"><a xlink:title=" ">
<path fill="none" stroke="#63b8ff" d="M1063.35,-174.64C979.9,-166.11 693.03,-136.77 593.06,-126.55"/>
<polygon fill="#63b8ff" stroke="#63b8ff" points="593.63,-123.09 583.33,-125.55 592.92,-130.05 593.63,-123.09"/>
</a>
</g>
</g>
<!-- Node33 -->
<g id="Node000033" class="node">
<title>Node33</title>
<g id="a_Node000033"><a xlink:title=" ">
<polygon fill="#e0e0e0" stroke="#999999" points="1136.5,-132 1088.25,-132 1088.25,-112 1136.5,-112 1136.5,-132"/>
<text xml:space="preserve" text-anchor="middle" x="1112.38" y="-118.5" font-family="Helvetica,sans-Serif" font-size="10.00">ctype.h</text>
</a>
</g>
</g>
<!-- Node32&#45;&gt;Node33 -->
<g id="edge47_Node000032_Node000033" class="edge">
<title>Node32&#45;&gt;Node33</title>
<g id="a_edge47_Node000032_Node000033"><a xlink:title=" ">
<path fill="none" stroke="#63b8ff" d="M1090.9,-167.59C1094.22,-160.7 1098.84,-151.1 1102.95,-142.57"/>
<polygon fill="#63b8ff" stroke="#63b8ff" points="1106.06,-144.19 1107.24,-133.66 1099.75,-141.15 1106.06,-144.19"/>
</a>
</g>
</g>
<!-- Node34 -->
<g id="Node000034" class="node">
<title>Node34</title>
<g id="a_Node000034"><a xlink:title=" ">
<polygon fill="#e0e0e0" stroke="#999999" points="1276,-132 1230.75,-132 1230.75,-112 1276,-112 1276,-132"/>
<text xml:space="preserve" text-anchor="middle" x="1253.38" y="-118.5" font-family="Helvetica,sans-Serif" font-size="10.00">stdio.h</text>
</a>
</g>
</g>
<!-- Node32&#45;&gt;Node34 -->
<g id="edge51_Node000032_Node000034" class="edge">
<title>Node32&#45;&gt;Node34</title>
<g id="a_edge51_Node000032_Node000034"><a xlink:title=" ">
<path fill="none" stroke="#63b8ff" d="M1109.25,-169.6C1137.77,-160.38 1186.79,-144.53 1219.63,-133.91"/>
<polygon fill="#63b8ff" stroke="#63b8ff" points="1220.64,-137.27 1229.07,-130.86 1218.48,-130.6 1220.64,-137.27"/>
</a>
</g>
</g>
<!-- Node35&#45;&gt;Node2 -->
<g id="edge55_Node000035_Node000002" class="edge">
<title>Node35&#45;&gt;Node2</title>
<g id="a_edge55_Node000035_Node000002"><a xlink:title=" ">
<path fill="none" stroke="#63b8ff" d="M775.96,-167.62C782.74,-149.84 797.62,-110.88 806.74,-87"/>
<polygon fill="#63b8ff" stroke="#63b8ff" points="809.97,-88.36 810.26,-77.77 803.43,-85.86 809.97,-88.36"/>
</a>
</g>
</g>
<!-- Node35&#45;&gt;Node24 -->
<g id="edge56_Node000035_Node000024" class="edge">
<title>Node35&#45;&gt;Node24</title>
<g id="a_edge56_Node000035_Node000024"><a xlink:title=" ">
<path fill="none" stroke="#63b8ff" d="M735.1,-167.59C694.88,-157.45 631.39,-141.42 592.46,-131.6"/>
<polygon fill="#63b8ff" stroke="#63b8ff" points="593.71,-128.31 583.16,-129.25 592,-135.09 593.71,-128.31"/>
</a>
</g>
</g>
</g>
</svg>
