<?xml version="1.0" encoding="UTF-8" standalone="no"?>
<!DOCTYPE svg PUBLIC "-//W3C//DTD SVG 1.1//EN"
 "http://www.w3.org/Graphics/SVG/1.1/DTD/svg11.dtd">
<!-- Generated by graphviz version 13.1.2 (20250808.2320)
 -->
<!-- Title: main.h Pages: 1 -->
<svg width="923pt" height="84pt"
 viewBox="0.00 0.00 923.00 84.00" xmlns="http://www.w3.org/2000/svg" xmlns:xlink="http://www.w3.org/1999/xlink">
<g id="graph0" class="graph" transform="scale(1 1) rotate(0) translate(4 80)">
<title>main.h</title>
<!-- Node1 -->
<g id="Node000001" class="node">
<title>Node1</title>
<g id="a_Node000001"><a xlink:title=": Header for main.c file. This file contains the common defines of the application.">
<polygon fill="#999999" stroke="#666666" points="470.62,-76 425.38,-76 425.38,-56 470.62,-56 470.62,-76"/>
<text xml:space="preserve" text-anchor="middle" x="448" y="-62.5" font-family="Helvetica,sans-Serif" font-size="10.00">main.h</text>
</a>
</g>
</g>
<!-- Node2 -->
<g id="Node000002" class="node">
<title>Node2</title>
<g id="a_Node000002"><a xlink:title=" ">
<polygon fill="#e0e0e0" stroke="#999999" points="88,-20 0,-20 0,0 88,0 88,-20"/>
<text xml:space="preserve" text-anchor="middle" x="44" y="-6.5" font-family="Helvetica,sans-Serif" font-size="10.00">stm32f4xx_hal.h</text>
</a>
</g>
</g>
<!-- Node1&#45;&gt;Node2 -->
<g id="edge1_Node000001_Node000002" class="edge">
<title>Node1&#45;&gt;Node2</title>
<g id="a_edge1_Node000001_Node000002"><a xlink:title=" ">
<path fill="none" stroke="#63b8ff" d="M424.96,-62.37C370.38,-56.09 228.69,-39.36 99.49,-20.32"/>
<polygon fill="#63b8ff" stroke="#63b8ff" points="100.13,-16.88 89.72,-18.87 99.1,-23.8 100.13,-16.88"/>
</a>
</g>
</g>
<!-- Node3 -->
<g id="Node000003" class="node">
<title>Node3</title>
<g id="a_Node000003"><a xlink:title=" ">
<polygon fill="#e0e0e0" stroke="#999999" points="161.88,-20 106.12,-20 106.12,0 161.88,0 161.88,-20"/>
<text xml:space="preserve" text-anchor="middle" x="134" y="-6.5" font-family="Helvetica,sans-Serif" font-size="10.00">stdbool.h</text>
</a>
</g>
</g>
<!-- Node1&#45;&gt;Node3 -->
<g id="edge2_Node000001_Node000003" class="edge">
<title>Node1&#45;&gt;Node3</title>
<g id="a_edge2_Node000001_Node000003"><a xlink:title=" ">
<path fill="none" stroke="#63b8ff" d="M424.91,-61.87C378.97,-55.5 272.65,-40.12 173.36,-20.35"/>
<polygon fill="#63b8ff" stroke="#63b8ff" points="174.21,-16.95 163.72,-18.4 172.83,-23.81 174.21,-16.95"/>
</a>
</g>
</g>
<!-- Node4 -->
<g id="Node000004" class="node">
<title>Node4</title>
<g id="a_Node000004"><a xlink:title=" ">
<polygon fill="#e0e0e0" stroke="#999999" points="226,-20 180,-20 180,0 226,0 226,-20"/>
<text xml:space="preserve" text-anchor="middle" x="203" y="-6.5" font-family="Helvetica,sans-Serif" font-size="10.00">math.h</text>
</a>
</g>
</g>
<!-- Node1&#45;&gt;Node4 -->
<g id="edge3_Node000001_Node000004" class="edge">
<title>Node1&#45;&gt;Node4</title>
<g id="a_edge3_Node000001_Node000004"><a xlink:title=" ">
<path fill="none" stroke="#63b8ff" d="M424.88,-60.63C387.49,-53.46 311.23,-38.38 237.26,-20.43"/>
<polygon fill="#63b8ff" stroke="#63b8ff" points="238.39,-17.11 227.84,-18.13 236.72,-23.9 238.39,-17.11"/>
</a>
</g>
</g>
<!-- Node5 -->
<g id="Node000005" class="node">
<title>Node5</title>
<g id="a_Node000005"><a xlink:title=" ">
<polygon fill="#e0e0e0" stroke="#999999" points="292.12,-20 243.88,-20 243.88,0 292.12,0 292.12,-20"/>
<text xml:space="preserve" text-anchor="middle" x="268" y="-6.5" font-family="Helvetica,sans-Serif" font-size="10.00">string.h</text>
</a>
</g>
</g>
<!-- Node1&#45;&gt;Node5 -->
<g id="edge4_Node000001_Node000005" class="edge">
<title>Node1&#45;&gt;Node5</title>
<g id="a_edge4_Node000001_Node000005"><a xlink:title=" ">
<path fill="none" stroke="#63b8ff" d="M425.2,-58.16C394.47,-48.94 339.46,-32.44 303.34,-21.6"/>
<polygon fill="#63b8ff" stroke="#63b8ff" points="304.37,-18.26 293.78,-18.74 302.36,-24.96 304.37,-18.26"/>
</a>
</g>
</g>
<!-- Node6 -->
<g id="Node000006" class="node">
<title>Node6</title>
<g id="a_Node000006"><a xlink:title=" ">
<polygon fill="#e0e0e0" stroke="#999999" points="357.75,-20 310.25,-20 310.25,0 357.75,0 357.75,-20"/>
<text xml:space="preserve" text-anchor="middle" x="334" y="-6.5" font-family="Helvetica,sans-Serif" font-size="10.00">stdlib.h</text>
</a>
</g>
</g>
<!-- Node1&#45;&gt;Node6 -->
<g id="edge5_Node000001_Node000006" class="edge">
<title>Node1&#45;&gt;Node6</title>
<g id="a_edge5_Node000001_Node000006"><a xlink:title=" ">
<path fill="none" stroke="#63b8ff" d="M428.14,-55.59C410.51,-47.24 384.49,-34.92 364.27,-25.34"/>
<polygon fill="#63b8ff" stroke="#63b8ff" points="365.92,-22.25 355.38,-21.13 362.92,-28.57 365.92,-22.25"/>
</a>
</g>
</g>
<!-- Node7 -->
<g id="Node000007" class="node">
<title>Node7</title>
<g id="a_Node000007"><a xlink:title=" ">
<polygon fill="#e0e0e0" stroke="#999999" points="446.38,-20 375.62,-20 375.62,0 446.38,0 446.38,-20"/>
<text xml:space="preserve" text-anchor="middle" x="411" y="-6.5" font-family="Helvetica,sans-Serif" font-size="10.00">FreeRTOS.h</text>
</a>
</g>
</g>
<!-- Node1&#45;&gt;Node7 -->
<g id="edge6_Node000001_Node000007" class="edge">
<title>Node1&#45;&gt;Node7</title>
<g id="a_edge6_Node000001_Node000007"><a xlink:title=" ">
<path fill="none" stroke="#63b8ff" d="M441.56,-55.59C436.67,-48.47 429.81,-38.45 423.82,-29.72"/>
<polygon fill="#63b8ff" stroke="#63b8ff" points="426.77,-27.82 418.23,-21.55 420.99,-31.77 426.77,-27.82"/>
</a>
</g>
</g>
<!-- Node8 -->
<g id="Node000008" class="node">
<title>Node8</title>
<g id="a_Node000008"><a xlink:title=" ">
<polygon fill="#e0e0e0" stroke="#999999" points="507.5,-20 464.5,-20 464.5,0 507.5,0 507.5,-20"/>
<text xml:space="preserve" text-anchor="middle" x="486" y="-6.5" font-family="Helvetica,sans-Serif" font-size="10.00">task.h</text>
</a>
</g>
</g>
<!-- Node1&#45;&gt;Node8 -->
<g id="edge7_Node000001_Node000008" class="edge">
<title>Node1&#45;&gt;Node8</title>
<g id="a_edge7_Node000001_Node000008"><a xlink:title=" ">
<path fill="none" stroke="#63b8ff" d="M454.62,-55.59C459.69,-48.39 466.84,-38.23 473.03,-29.43"/>
<polygon fill="#63b8ff" stroke="#63b8ff" points="475.69,-31.73 478.59,-21.54 469.97,-27.7 475.69,-31.73"/>
</a>
</g>
</g>
<!-- Node9 -->
<g id="Node000009" class="node">
<title>Node9</title>
<g id="a_Node000009"><a xlink:title=" ">
<polygon fill="#e0e0e0" stroke="#999999" points="582.25,-20 525.75,-20 525.75,0 582.25,0 582.25,-20"/>
<text xml:space="preserve" text-anchor="middle" x="554" y="-6.5" font-family="Helvetica,sans-Serif" font-size="10.00">semphr.h</text>
</a>
</g>
</g>
<!-- Node1&#45;&gt;Node9 -->
<g id="edge8_Node000001_Node000009" class="edge">
<title>Node1&#45;&gt;Node9</title>
<g id="a_edge8_Node000001_Node000009"><a xlink:title=" ">
<path fill="none" stroke="#63b8ff" d="M466.46,-55.59C482.7,-47.32 506.61,-35.14 525.33,-25.6"/>
<polygon fill="#63b8ff" stroke="#63b8ff" points="526.72,-28.82 534.04,-21.17 523.54,-22.59 526.72,-28.82"/>
</a>
</g>
</g>
<!-- Node10 -->
<g id="Node000010" class="node">
<title>Node10</title>
<g id="a_Node000010"><a xlink:title=" ">
<polygon fill="#e0e0e0" stroke="#999999" points="651.25,-20 600.75,-20 600.75,0 651.25,0 651.25,-20"/>
<text xml:space="preserve" text-anchor="middle" x="626" y="-6.5" font-family="Helvetica,sans-Serif" font-size="10.00">queue.h</text>
</a>
</g>
</g>
<!-- Node1&#45;&gt;Node10 -->
<g id="edge9_Node000001_Node000010" class="edge">
<title>Node1&#45;&gt;Node10</title>
<g id="a_edge9_Node000001_Node000010"><a xlink:title=" ">
<path fill="none" stroke="#63b8ff" d="M470.91,-58.05C500.9,-48.95 553.84,-32.89 589.41,-22.1"/>
<polygon fill="#63b8ff" stroke="#63b8ff" points="590.3,-25.49 598.85,-19.24 588.27,-18.79 590.3,-25.49"/>
</a>
</g>
</g>
<!-- Node11 -->
<g id="Node000011" class="node">
<title>Node11</title>
<g id="a_Node000011"><a xlink:title=" ">
<polygon fill="#e0e0e0" stroke="#999999" points="720.62,-20 669.38,-20 669.38,0 720.62,0 720.62,-20"/>
<text xml:space="preserve" text-anchor="middle" x="695" y="-6.5" font-family="Helvetica,sans-Serif" font-size="10.00">timers.h</text>
</a>
</g>
</g>
<!-- Node1&#45;&gt;Node11 -->
<g id="edge10_Node000001_Node000011" class="edge">
<title>Node1&#45;&gt;Node11</title>
<g id="a_edge10_Node000001_Node000011"><a xlink:title=" ">
<path fill="none" stroke="#63b8ff" d="M470.97,-60.46C508.13,-53.04 583.95,-37.61 658.11,-20.36"/>
<polygon fill="#63b8ff" stroke="#63b8ff" points="658.62,-23.84 667.56,-18.15 657.03,-17.02 658.62,-23.84"/>
</a>
</g>
</g>
<!-- Node12 -->
<g id="Node000012" class="node">
<title>Node12</title>
<g id="a_Node000012"><a xlink:title=" ">
<polygon fill="#e0e0e0" stroke="#999999" points="821.38,-20 738.62,-20 738.62,0 821.38,0 821.38,-20"/>
<text xml:space="preserve" text-anchor="middle" x="780" y="-6.5" font-family="Helvetica,sans-Serif" font-size="10.00">event_groups.h</text>
</a>
</g>
</g>
<!-- Node1&#45;&gt;Node12 -->
<g id="edge11_Node000001_Node000012" class="edge">
<title>Node1&#45;&gt;Node12</title>
<g id="a_edge11_Node000001_Node000012"><a xlink:title=" ">
<path fill="none" stroke="#63b8ff" d="M471.05,-61.48C517.47,-54.36 625.75,-37.58 726.92,-20.5"/>
<polygon fill="#63b8ff" stroke="#63b8ff" points="727.5,-23.95 736.78,-18.83 726.33,-17.05 727.5,-23.95"/>
</a>
</g>
</g>
<!-- Node13 -->
<g id="Node000013" class="node">
<title>Node13</title>
<g id="a_Node000013"><a xlink:title=" ">
<polygon fill="#e0e0e0" stroke="#999999" points="914.62,-20 839.38,-20 839.38,0 914.62,0 914.62,-20"/>
<text xml:space="preserve" text-anchor="middle" x="877" y="-6.5" font-family="Helvetica,sans-Serif" font-size="10.00">trcRecorder.h</text>
</a>
</g>
</g>
<!-- Node1&#45;&gt;Node13 -->
<g id="edge12_Node000001_Node000013" class="edge">
<title>Node1&#45;&gt;Node13</title>
<g id="a_edge12_Node000001_Node000013"><a xlink:title=" ">
<path fill="none" stroke="#63b8ff" d="M470.9,-62.88C528.83,-57.4 686.12,-41.77 828.02,-20.2"/>
<polygon fill="#63b8ff" stroke="#63b8ff" points="828.23,-23.71 837.58,-18.73 827.16,-16.79 828.23,-23.71"/>
</a>
</g>
</g>
</g>
</svg>
