<?xml version="1.0" encoding="UTF-8" standalone="no"?>
<!DOCTYPE svg PUBLIC "-//W3C//DTD SVG 1.1//EN"
 "http://www.w3.org/Graphics/SVG/1.1/DTD/svg11.dtd">
<!-- Generated by graphviz version 13.1.2 (20250808.2320)
 -->
<!-- Title: main.h Pages: 1 -->
<svg width="582pt" height="196pt"
 viewBox="0.00 0.00 582.00 196.00" xmlns="http://www.w3.org/2000/svg" xmlns:xlink="http://www.w3.org/1999/xlink">
<g id="graph0" class="graph" transform="scale(1 1) rotate(0) translate(4 192)">
<title>main.h</title>
<!-- Node1 -->
<g id="Node000001" class="node">
<title>Node1</title>
<g id="a_Node000001"><a xlink:title=": Header for main.c file. This file contains the common defines of the application.">
<polygon fill="#999999" stroke="#666666" points="465.38,-188 420.12,-188 420.12,-168 465.38,-168 465.38,-188"/>
<text xml:space="preserve" text-anchor="middle" x="442.75" y="-174.5" font-family="Helvetica,sans-Serif" font-size="10.00">main.h</text>
</a>
</g>
</g>
<!-- Node2 -->
<g id="Node000002" class="node">
<title>Node2</title>
<g id="a_Node000002"><a xlink:href="_d_a_q_8h_source.html" target="_top" xlink:title=" ">
<polygon fill="white" stroke="#666666" points="337.75,-132 291.75,-132 291.75,-112 337.75,-112 337.75,-132"/>
<text xml:space="preserve" text-anchor="middle" x="314.75" y="-118.5" font-family="Helvetica,sans-Serif" font-size="10.00">DAQ.h</text>
</a>
</g>
</g>
<!-- Node1&#45;&gt;Node2 -->
<g id="edge1_Node000001_Node000002" class="edge">
<title>Node1&#45;&gt;Node2</title>
<g id="a_edge1_Node000001_Node000002"><a xlink:title=" ">
<path fill="none" stroke="#63b8ff" d="M409.9,-163.14C387.11,-153.52 357.34,-140.97 337.22,-132.48"/>
<polygon fill="#63b8ff" stroke="#63b8ff" points="408.49,-166.34 419.06,-167.01 411.21,-159.89 408.49,-166.34"/>
</a>
</g>
</g>
<!-- Node4 -->
<g id="Node000004" class="node">
<title>Node4</title>
<g id="a_Node000004"><a xlink:href="_g_p_s_8h_source.html" target="_top" xlink:title=" ">
<polygon fill="white" stroke="#666666" points="495.38,-76 450.12,-76 450.12,-56 495.38,-56 495.38,-76"/>
<text xml:space="preserve" text-anchor="middle" x="472.75" y="-62.5" font-family="Helvetica,sans-Serif" font-size="10.00">GPS.h</text>
</a>
</g>
</g>
<!-- Node1&#45;&gt;Node4 -->
<g id="edge14_Node000001_Node000004" class="edge">
<title>Node1&#45;&gt;Node4</title>
<g id="a_edge14_Node000001_Node000004"><a xlink:title=" ">
<path fill="none" stroke="#63b8ff" d="M448.3,-156.64C454.83,-132.72 465.38,-94.03 470.2,-76.35"/>
<polygon fill="#63b8ff" stroke="#63b8ff" points="444.96,-155.59 445.71,-166.16 451.71,-157.43 444.96,-155.59"/>
</a>
</g>
</g>
<!-- Node5 -->
<g id="Node000005" class="node">
<title>Node5</title>
<g id="a_Node000005"><a xlink:href="main_8c.html" target="_top" xlink:title=": Main program body">
<polygon fill="white" stroke="#666666" points="415.38,-20 370.12,-20 370.12,0 415.38,0 415.38,-20"/>
<text xml:space="preserve" text-anchor="middle" x="392.75" y="-6.5" font-family="Helvetica,sans-Serif" font-size="10.00">main.c</text>
</a>
</g>
</g>
<!-- Node1&#45;&gt;Node5 -->
<g id="edge18_Node000001_Node000005" class="edge">
<title>Node1&#45;&gt;Node5</title>
<g id="a_edge18_Node000001_Node000005"><a xlink:title=" ">
<path fill="none" stroke="#63b8ff" d="M476.13,-163.27C523,-142.01 599.07,-99.09 565.75,-56 547.43,-32.31 458.41,-18.76 415.7,-13.53"/>
<polygon fill="#63b8ff" stroke="#63b8ff" points="474.9,-159.99 467.16,-167.22 477.72,-166.39 474.9,-159.99"/>
</a>
</g>
</g>
<!-- Node6 -->
<g id="Node000006" class="node">
<title>Node6</title>
<g id="a_Node000006"><a xlink:href="_i_m_u_8h_source.html" target="_top" xlink:title=" ">
<polygon fill="white" stroke="#666666" points="556.25,-76 513.25,-76 513.25,-56 556.25,-56 556.25,-76"/>
<text xml:space="preserve" text-anchor="middle" x="534.75" y="-62.5" font-family="Helvetica,sans-Serif" font-size="10.00">IMU.h</text>
</a>
</g>
</g>
<!-- Node1&#45;&gt;Node6 -->
<g id="edge15_Node000001_Node000006" class="edge">
<title>Node1&#45;&gt;Node6</title>
<g id="a_edge15_Node000001_Node000006"><a xlink:title=" ">
<path fill="none" stroke="#63b8ff" d="M457.89,-158.9C477.69,-135.22 511.67,-94.6 526.93,-76.35"/>
<polygon fill="#63b8ff" stroke="#63b8ff" points="455.3,-156.54 451.56,-166.46 460.67,-161.04 455.3,-156.54"/>
</a>
</g>
</g>
<!-- Node7 -->
<g id="Node000007" class="node">
<title>Node7</title>
<g id="a_Node000007"><a xlink:href="_position_8h_source.html" target="_top" xlink:title=" ">
<polygon fill="white" stroke="#666666" points="59.5,-76 0,-76 0,-56 59.5,-56 59.5,-76"/>
<text xml:space="preserve" text-anchor="middle" x="29.75" y="-62.5" font-family="Helvetica,sans-Serif" font-size="10.00">Position.h</text>
</a>
</g>
</g>
<!-- Node1&#45;&gt;Node7 -->
<g id="edge16_Node000001_Node000007" class="edge">
<title>Node1&#45;&gt;Node7</title>
<g id="a_edge16_Node000001_Node000007"><a xlink:title=" ">
<path fill="none" stroke="#63b8ff" d="M408.9,-167.98C330.04,-146.98 135.13,-95.07 59.98,-75.05"/>
<polygon fill="#63b8ff" stroke="#63b8ff" points="407.63,-171.27 418.2,-170.46 409.44,-164.5 407.63,-171.27"/>
</a>
</g>
</g>
<!-- Node9 -->
<g id="Node000009" class="node">
<title>Node9</title>
<g id="a_Node000009"><a xlink:href="_temperature_8h_source.html" target="_top" xlink:title=" ">
<polygon fill="white" stroke="#666666" points="431.88,-76 353.62,-76 353.62,-56 431.88,-56 431.88,-76"/>
<text xml:space="preserve" text-anchor="middle" x="392.75" y="-62.5" font-family="Helvetica,sans-Serif" font-size="10.00">Temperature.h</text>
</a>
</g>
</g>
<!-- Node1&#45;&gt;Node9 -->
<g id="edge17_Node000001_Node000009" class="edge">
<title>Node1&#45;&gt;Node9</title>
<g id="a_edge17_Node000001_Node000009"><a xlink:title=" ">
<path fill="none" stroke="#63b8ff" d="M433.79,-157.3C422.94,-133.43 405.11,-94.2 397,-76.35"/>
<polygon fill="#63b8ff" stroke="#63b8ff" points="430.54,-158.59 437.86,-166.24 436.91,-155.69 430.54,-158.59"/>
</a>
</g>
</g>
<!-- Node3 -->
<g id="Node000003" class="node">
<title>Node3</title>
<g id="a_Node000003"><a xlink:href="_d_a_q___b_k_p_s_r_a_m___private_8h_source.html" target="_top" xlink:title=" ">
<polygon fill="white" stroke="#666666" points="335.12,-76 198.38,-76 198.38,-56 335.12,-56 335.12,-76"/>
<text xml:space="preserve" text-anchor="middle" x="266.75" y="-62.5" font-family="Helvetica,sans-Serif" font-size="10.00">DAQ_BKPSRAM_Private.h</text>
</a>
</g>
</g>
<!-- Node2&#45;&gt;Node3 -->
<g id="edge2_Node000002_Node000003" class="edge">
<title>Node2&#45;&gt;Node3</title>
<g id="a_edge2_Node000002_Node000003"><a xlink:title=" ">
<path fill="none" stroke="#63b8ff" d="M298.75,-103C290.8,-94.06 281.53,-83.62 275.02,-76.3"/>
<polygon fill="#63b8ff" stroke="#63b8ff" points="296.12,-105.31 305.38,-110.46 301.36,-100.66 296.12,-105.31"/>
</a>
</g>
</g>
<!-- Node2&#45;&gt;Node4 -->
<g id="edge3_Node000002_Node000004" class="edge">
<title>Node2&#45;&gt;Node4</title>
<g id="a_edge3_Node000002_Node000004"><a xlink:title=" ">
<path fill="none" stroke="#63b8ff" d="M348.65,-109.41C379.2,-98.97 423.28,-83.91 449.85,-74.83"/>
<polygon fill="#63b8ff" stroke="#63b8ff" points="347.83,-106 339.5,-112.54 350.09,-112.62 347.83,-106"/>
</a>
</g>
</g>
<!-- Node2&#45;&gt;Node5 -->
<g id="edge13_Node000002_Node000005" class="edge">
<title>Node2&#45;&gt;Node5</title>
<g id="a_edge13_Node000002_Node000005"><a xlink:title=" ">
<path fill="none" stroke="#63b8ff" d="M280.11,-121.27C209.18,-120.69 58.06,-112.95 106.75,-56 140.72,-16.27 308.29,-11.39 369.94,-10.96"/>
<polygon fill="#63b8ff" stroke="#63b8ff" points="280.03,-124.77 290.04,-121.3 280.06,-117.77 280.03,-124.77"/>
</a>
</g>
</g>
<!-- Node2&#45;&gt;Node6 -->
<g id="edge5_Node000002_Node000006" class="edge">
<title>Node2&#45;&gt;Node6</title>
<g id="a_edge5_Node000002_Node000006"><a xlink:title=" ">
<path fill="none" stroke="#63b8ff" d="M348.96,-113.54C387.11,-105.06 450.6,-90.52 504.75,-76 507.38,-75.3 510.12,-74.52 512.84,-73.74"/>
<polygon fill="#63b8ff" stroke="#63b8ff" points="348.45,-110.06 339.44,-115.64 349.96,-116.9 348.45,-110.06"/>
</a>
</g>
</g>
<!-- Node2&#45;&gt;Node7 -->
<g id="edge7_Node000002_Node000007" class="edge">
<title>Node2&#45;&gt;Node7</title>
<g id="a_edge7_Node000002_Node000007"><a xlink:title=" ">
<path fill="none" stroke="#63b8ff" d="M280.16,-114.73C233.32,-106.2 147.14,-90.36 73.75,-76 69.16,-75.1 64.3,-74.13 59.56,-73.17"/>
<polygon fill="#63b8ff" stroke="#63b8ff" points="279.51,-118.17 289.97,-116.52 280.76,-111.29 279.51,-118.17"/>
</a>
</g>
</g>
<!-- Node8 -->
<g id="Node000008" class="node">
<title>Node8</title>
<g id="a_Node000008"><a xlink:href="_proximity_8h_source.html" target="_top" xlink:title=" ">
<polygon fill="white" stroke="#666666" points="180.12,-76 115.38,-76 115.38,-56 180.12,-56 180.12,-76"/>
<text xml:space="preserve" text-anchor="middle" x="147.75" y="-62.5" font-family="Helvetica,sans-Serif" font-size="10.00">Proximity.h</text>
</a>
</g>
</g>
<!-- Node2&#45;&gt;Node8 -->
<g id="edge9_Node000002_Node000008" class="edge">
<title>Node2&#45;&gt;Node8</title>
<g id="a_edge9_Node000002_Node000008"><a xlink:title=" ">
<path fill="none" stroke="#63b8ff" d="M280.97,-110.08C250.44,-100.2 205.97,-85.82 176.95,-76.44"/>
<polygon fill="#63b8ff" stroke="#63b8ff" points="279.5,-113.28 290.09,-113.03 281.65,-106.62 279.5,-113.28"/>
</a>
</g>
</g>
<!-- Node2&#45;&gt;Node9 -->
<g id="edge11_Node000002_Node000009" class="edge">
<title>Node2&#45;&gt;Node9</title>
<g id="a_edge11_Node000002_Node000009"><a xlink:title=" ">
<path fill="none" stroke="#63b8ff" d="M337.47,-105.27C350.94,-95.94 367.58,-84.43 379.06,-76.48"/>
<polygon fill="#63b8ff" stroke="#63b8ff" points="335.81,-102.16 329.58,-110.73 339.8,-107.92 335.81,-102.16"/>
</a>
</g>
</g>
<!-- Node4&#45;&gt;Node5 -->
<g id="edge4_Node000004_Node000005" class="edge">
<title>Node4&#45;&gt;Node5</title>
<g id="a_edge4_Node000004_Node000005"><a xlink:title=" ">
<path fill="none" stroke="#63b8ff" d="M449.45,-49.27C435.63,-39.94 418.57,-28.43 406.79,-20.48"/>
<polygon fill="#63b8ff" stroke="#63b8ff" points="447.31,-52.05 457.56,-54.75 451.23,-46.25 447.31,-52.05"/>
</a>
</g>
</g>
<!-- Node6&#45;&gt;Node5 -->
<g id="edge6_Node000006_Node000005" class="edge">
<title>Node6&#45;&gt;Node5</title>
<g id="a_edge6_Node000006_Node000005"><a xlink:title=" ">
<path fill="none" stroke="#63b8ff" d="M502.25,-52.64C475.86,-42.61 439.3,-28.7 415.83,-19.78"/>
<polygon fill="#63b8ff" stroke="#63b8ff" points="500.87,-55.86 511.46,-56.14 503.36,-49.32 500.87,-55.86"/>
</a>
</g>
</g>
<!-- Node7&#45;&gt;Node5 -->
<g id="edge8_Node000007_Node000005" class="edge">
<title>Node7&#45;&gt;Node5</title>
<g id="a_edge8_Node000007_Node000005"><a xlink:title=" ">
<path fill="none" stroke="#63b8ff" d="M70.69,-56.54C71.72,-56.35 72.74,-56.17 73.75,-56 184.26,-36.92 317.34,-20.12 369.85,-13.74"/>
<polygon fill="#63b8ff" stroke="#63b8ff" points="70.19,-53.07 61.01,-58.37 71.49,-59.95 70.19,-53.07"/>
</a>
</g>
</g>
<!-- Node8&#45;&gt;Node5 -->
<g id="edge10_Node000008_Node000005" class="edge">
<title>Node8&#45;&gt;Node5</title>
<g id="a_edge10_Node000008_Node000005"><a xlink:title=" ">
<path fill="none" stroke="#63b8ff" d="M191.46,-55.37C243.62,-43.87 328.92,-25.07 369.66,-16.09"/>
<polygon fill="#63b8ff" stroke="#63b8ff" points="191.03,-51.88 182.02,-57.45 192.53,-58.71 191.03,-51.88"/>
</a>
</g>
</g>
<!-- Node9&#45;&gt;Node5 -->
<g id="edge12_Node000009_Node000005" class="edge">
<title>Node9&#45;&gt;Node5</title>
<g id="a_edge12_Node000009_Node000005"><a xlink:title=" ">
<path fill="none" stroke="#63b8ff" d="M392.75,-44.13C392.75,-35.9 392.75,-26.85 392.75,-20.3"/>
<polygon fill="#63b8ff" stroke="#63b8ff" points="389.25,-44.08 392.75,-54.08 396.25,-44.08 389.25,-44.08"/>
</a>
</g>
</g>
</g>
</svg>
